<svg width="60" height="60" viewBox="0 0 60 60" fill="none" xmlns="http://www.w3.org/2000/svg">
<path d="M5.05713 52.4055C3.86171 52.1239 2.83035 51.6311 1.98652 50.8098C0.720774 49.613 0.0410196 48.1347 0.0175798 46.3747C-0.00585995 39.992 -0.00585995 33.6092 0.0175798 27.2265C0.0410196 23.8474 2.7366 21.1488 6.1588 21.1253C9.95605 21.0784 13.7299 21.1253 17.5271 21.1018C17.7615 21.1018 17.9959 21.1018 18.3006 21.1018C18.3006 20.8437 18.3006 20.609 18.3006 20.3744C18.3006 15.7046 18.3006 11.0349 18.3006 6.36516C18.3006 3.05645 20.4805 0.545585 23.7386 0.0527986C23.9965 0.00586651 24.2543 0.00586651 24.4887 0.00586651C27.5593 0.00586651 30.6299 0.00586651 33.6771 0.00586651C33.724 0.00586651 33.7943 0.00586651 33.8412 0.00586651C34.5444 0.0527986 35.0366 0.545585 35.0132 1.20263C34.9897 1.83622 34.521 2.329 33.8412 2.329C32.4114 2.35247 30.9815 2.329 29.5752 2.329C27.9109 2.329 26.2467 2.329 24.6059 2.329C22.3088 2.35247 20.6446 3.99509 20.6446 6.29476C20.6446 12.5602 20.6446 18.8256 20.6446 25.0911C20.6446 27.3673 22.3323 29.0333 24.6294 29.0333C31.2628 29.0333 37.9197 29.0333 44.5532 29.0333C45.1861 29.0333 45.6783 29.1976 46.1471 29.62C48.1395 31.3565 50.1553 33.046 52.1711 34.7591C52.2883 34.8764 52.4289 34.9702 52.6633 35.1345C52.6633 33.6796 52.6633 32.3186 52.6633 30.9576C52.6633 30.7229 52.6633 30.4882 52.6633 30.2536C52.6868 29.5261 53.1087 29.1037 53.8353 29.0568C56.2496 28.8691 57.656 27.3438 57.656 24.8799C57.656 18.7787 57.656 12.6541 57.656 6.55289C57.656 3.94816 56.0621 2.35247 53.4603 2.35247C50.6006 2.35247 47.7644 2.35247 44.9048 2.35247C44.7173 2.35247 44.5063 2.35247 44.3188 2.35247C43.6859 2.28207 43.2406 1.76582 43.264 1.1557C43.2874 0.569051 43.7094 0.0762646 44.3188 0.0293325C44.7641 -0.0175995 45.2095 0.00586651 45.6549 0.00586651C48.2801 0.00586651 50.8819 0.00586651 53.5072 0.00586651C57.3279 0.00586651 60 2.65753 60 6.48249C60 12.5837 60 18.6614 60 24.7625C60 28.0947 58.3827 30.277 55.1714 31.2392C55.1245 31.2626 55.0542 31.2861 54.9604 31.333C54.9604 32.694 54.9604 34.0785 54.9604 35.463C54.9604 36.1436 54.9604 36.8241 54.9604 37.5046C54.9604 38.0912 54.7964 38.5371 54.2338 38.7952C53.6947 39.0299 53.2493 38.8421 52.8509 38.4667C50.2022 36.2139 47.5769 33.9377 44.9048 31.7085C44.6938 31.5207 44.3657 31.4269 44.0844 31.4034C43.3343 31.3565 42.5608 31.3799 41.717 31.3799C41.717 31.6381 41.717 31.8493 41.717 32.0839C41.717 36.7537 41.717 41.4234 41.717 46.0931C41.717 49.4253 39.5605 51.9127 36.3024 52.429C35.9039 52.4994 35.482 52.4994 35.0835 52.4994C28.7313 52.4994 22.3791 52.4994 16.0504 52.4994C15.6285 52.4994 15.3238 52.6167 14.9956 52.8748C12.4172 55.1041 9.79197 57.3099 7.21359 59.5392C6.79168 59.9146 6.34632 60.1493 5.78377 59.8912C5.19777 59.633 5.05713 59.1403 5.05713 58.5536C5.05713 56.5355 5.05713 54.494 5.05713 52.4055ZM18.3006 23.4719C18.0897 23.4719 17.9725 23.4484 17.8787 23.4484C13.9877 23.4484 10.0967 23.425 6.22912 23.4484C4.04922 23.4484 2.36156 25.138 2.36156 27.3203C2.33812 33.6327 2.33812 39.945 2.36156 46.2339C2.36156 48.3928 3.93202 50.012 6.08849 50.1293C7.00264 50.1762 7.40111 50.5986 7.40111 51.4903C7.40111 52.7575 7.40111 54.0247 7.40111 55.2918C7.40111 55.5734 7.40111 55.855 7.40111 56.2539C9.65133 54.3297 11.8078 52.5228 13.9174 50.669C14.3862 50.2701 14.855 50.1058 15.4644 50.1058C22.0744 50.1293 28.661 50.1058 35.271 50.1058C37.7556 50.1058 39.3964 48.4867 39.3964 46.0227C39.3964 41.3295 39.3964 36.6598 39.3964 31.9666C39.3964 31.7789 39.373 31.5911 39.373 31.3095C33.8412 31.3095 28.3797 31.3095 22.8948 31.3095C22.9417 31.4503 23.012 31.6381 23.0823 31.8023C24.4653 35.4396 25.8482 39.1003 27.2077 42.7375C27.5125 43.5119 27.2312 44.1689 26.5514 44.4271C25.9185 44.6617 25.3091 44.3332 25.0044 43.5588C24.7466 42.9018 24.4887 42.2447 24.2778 41.5877C24.184 41.3061 24.0199 41.2122 23.7152 41.2122C21.84 41.2357 19.9648 41.2357 18.0897 41.2122C17.7381 41.2122 17.6209 41.353 17.5037 41.6346C17.2458 42.362 16.988 43.066 16.6833 43.77C16.402 44.4036 15.7691 44.6617 15.1831 44.4271C14.5737 44.1924 14.3159 43.5823 14.5034 42.9487C14.5502 42.761 14.6206 42.5732 14.6909 42.409C15.7457 39.6635 16.777 36.8945 17.8318 34.1489C18.4647 32.5063 19.0976 30.8872 19.7539 29.1741C18.3241 27.6019 18.16 25.6073 18.3006 23.4719ZM20.879 32.7644C20.0586 34.8998 19.3085 36.871 18.5585 38.8891C20.1289 38.8891 21.6291 38.8891 23.1995 38.8891C22.426 36.871 21.6759 34.8998 20.879 32.7644Z" fill="#77B900"/>
<path d="M43.1468 12.6305C43.0765 15.4229 42.2795 17.8869 40.6856 20.1396C41.8576 21.3129 43.2405 22.1342 44.7876 22.627C45.3501 22.8147 45.9596 22.9086 46.5455 23.0259C47.3894 23.1902 47.8113 23.7065 47.6941 24.4339C47.5769 25.1144 47.0378 25.4664 46.194 25.3491C43.6859 24.9971 41.506 23.9646 39.5839 22.3454C39.4433 22.2281 39.3027 22.0873 39.1386 21.97C38.6229 22.3689 38.1541 22.7678 37.6619 23.1433C35.9742 24.34 34.1225 25.091 32.0598 25.3725C31.1925 25.4899 30.6299 25.1144 30.5362 24.4104C30.4424 23.683 30.8643 23.1667 31.7316 23.0494C33.8881 22.7443 35.7398 21.8292 37.3572 20.3743C37.4275 20.3039 37.4744 20.2335 37.5681 20.1396C35.9976 17.9103 35.1772 15.4464 35.1304 12.6774C34.8725 12.654 34.6147 12.654 34.3803 12.654C33.4427 12.654 32.5051 12.654 31.5675 12.654C30.6534 12.654 30.1143 12.2081 30.1143 11.4807C30.1143 10.7532 30.6534 10.3074 31.5441 10.3074C33.4661 10.3074 35.3648 10.3074 37.2868 10.3074C37.4978 10.3074 37.7087 10.3074 37.9431 10.3074C37.9431 9.32178 37.9431 8.4066 37.9431 7.49143C37.9431 6.62319 38.3885 6.10693 39.1151 6.10693C39.8418 6.10693 40.2871 6.62319 40.2871 7.46796C40.2871 8.38314 40.2871 9.29831 40.2871 10.2839C40.5215 10.2839 40.7325 10.3074 40.9434 10.3074C42.8421 10.3074 44.7407 10.3074 46.6159 10.3074C46.8971 10.3074 47.1784 10.3074 47.4128 10.4012C47.9051 10.6124 48.1629 11.0113 48.116 11.5745C48.0691 12.1142 47.6707 12.5836 47.1081 12.607C46.2877 12.654 45.4673 12.654 44.6469 12.654C44.2016 12.6305 43.7093 12.6305 43.1468 12.6305ZM40.8028 12.6774C39.6777 12.6774 38.5995 12.6774 37.4978 12.6774C37.5447 14.6955 38.0603 16.5024 39.162 18.2154C40.2168 16.4555 40.7559 14.672 40.8028 12.6774Z" fill="#77B900"/>
<path d="M40.3106 1.17916C40.3106 1.83621 39.7715 2.35246 39.1152 2.35246C38.4823 2.329 37.9666 1.81274 37.9666 1.17916C37.9666 0.522112 38.5057 0.00585938 39.162 0.00585938C39.7949 0.0293254 40.3106 0.545578 40.3106 1.17916Z" fill="#77B900"/>
</svg>
