<svg width="61" height="60" viewBox="0 0 61 60" fill="none" xmlns="http://www.w3.org/2000/svg">
<g clip-path="url(#clip0_47_163)">
<path d="M10.0125 6.0075C10.0125 5.25657 9.98749 4.60575 10.0125 3.92991C10.0626 1.75218 11.8148 0.025026 13.9675 -5.31366e-06C16.1702 -5.31366e-06 17.9474 1.70212 17.9975 3.92991C18.0225 4.58072 17.9975 5.25657 17.9975 5.95744C20.6759 5.95744 23.2791 5.95744 26.0075 5.95744C26.0075 5.2816 25.9825 4.58072 26.0075 3.87984C26.1076 0.901121 29.2366 -0.926163 31.8648 0.475589C33.1915 1.17647 33.9174 2.35294 33.9925 3.85481C34.0175 4.53066 33.9925 5.23153 33.9925 5.95744C36.6708 5.95744 39.2991 5.95744 42.0025 5.95744C42.0025 5.33166 42.0025 4.73091 42.0025 4.10513C42.0526 1.77722 43.7547 -5.31366e-06 46.0075 -5.31366e-06C48.2603 -5.31366e-06 49.9875 1.75218 50.0125 4.08009C50.0125 4.70588 50.0125 5.33166 50.0125 6.0075C51.6646 6.0075 53.2666 6.0075 54.8686 6.0075C55.8448 6.0075 56.771 6.20775 57.597 6.73341C59.1489 7.70963 60 9.11138 60 10.9387C60.025 19.5745 60.025 28.1852 60 36.821C60 37.572 59.6245 37.9975 58.9988 37.9975C58.373 37.9975 57.9975 37.5469 57.9975 36.7459C57.9975 31.4393 57.9975 26.1327 57.9975 20.801C57.9975 20.5507 57.9975 20.3004 57.9975 20.025C39.3242 20.025 20.6759 20.025 1.97748 20.025C1.97748 20.2753 1.97748 20.5006 1.97748 20.7009C1.97748 30.6633 1.97748 40.6258 1.97748 50.5632C1.97748 52.766 3.17898 53.9675 5.38173 53.9675C14.368 53.9675 23.3542 53.9675 32.3154 53.9675C32.4656 53.9675 32.6158 53.9675 32.7409 53.9675C33.5169 53.9675 33.9925 54.3429 33.9675 54.9937C33.9675 55.6195 33.5169 55.97 32.7159 55.97C27.0839 55.97 21.4518 55.97 15.8448 55.97C12.3404 55.97 8.83605 55.97 5.33167 55.97C2.0776 55.97 -0.0250244 53.8673 -0.0250244 50.6133C6.87502e-06 37.5469 6.87502e-06 24.4556 6.87502e-06 11.3392C6.87502e-06 8.0851 2.10264 6.0075 5.3567 6.0075C6.88361 6.0075 8.41052 6.0075 10.0125 6.0075ZM2.00251 17.9474C20.7009 17.9474 39.3492 17.9474 57.9975 17.9474C57.9975 15.5194 58.0476 13.1665 57.9725 10.7885C57.9474 9.23654 56.6208 8.03504 55.0688 8.01001C53.8423 7.98498 52.6158 8.01001 51.3892 8.01001C50.9387 8.01001 50.4881 8.01001 50.0125 8.01001C50.0125 8.73591 50.0125 9.33667 50.0125 9.96245C49.9625 12.2403 48.2353 13.9925 46.0325 13.9925C43.8048 13.9925 42.0526 12.2403 42.0275 9.98748C42.0275 9.33667 42.0275 8.71088 42.0275 8.03504C39.3242 8.03504 36.6959 8.03504 34.0175 8.03504C34.0175 8.43554 34.0426 8.81101 34.0175 9.18648C33.9424 9.96245 33.9424 10.7885 33.6921 11.5144C33.0663 13.2666 31.1389 14.2678 29.3617 13.9424C27.4343 13.592 26.0826 12.04 26.0325 10.1377C26.0075 9.43679 26.0325 8.73591 26.0325 8.03504C23.3292 8.03504 20.7009 8.03504 18.0225 8.03504C18.0225 8.68585 18.0225 9.31163 18.0225 9.91238C17.9975 12.2403 16.2453 13.9925 14.0175 13.9925C11.7647 13.9925 10.0626 12.2153 10.0376 9.88735C10.0376 9.26157 10.0376 8.66082 10.0376 8.01001C8.21027 8.01001 6.45808 7.95994 4.73092 8.03504C3.27911 8.11013 2.10264 9.3617 2.05257 10.7885C1.97748 13.1665 2.00251 15.5444 2.00251 17.9474ZM15.995 7.00876C15.995 6.0826 15.995 5.13141 15.995 4.20525C15.995 2.92866 15.169 2.02753 14.0175 2.02753C12.8661 2.02753 12.015 2.90362 12.015 4.18022C12.015 6.0826 12.015 7.95994 12.015 9.86232C12.015 11.1389 12.8661 12.015 14.0175 12.015C15.169 12.015 15.995 11.1139 15.995 9.83729C16.02 8.8861 15.995 7.93491 15.995 7.00876ZM32.015 7.00876C32.015 6.05757 32.015 5.08135 32.015 4.13016C32.015 2.90362 31.164 2.0025 30.0376 2.0025C28.8861 2.0025 28.0351 2.87859 28.0351 4.10513C28.0351 6.03254 28.0351 7.98498 28.0351 9.91238C28.0351 11.1139 28.9111 12.015 30.0376 12.015C31.164 12.015 32.015 11.1139 32.015 9.88735C32.015 8.91113 32.015 7.95994 32.015 7.00876ZM48.01 7.00876C48.01 6.03254 48.01 5.05631 48.01 4.08009C47.985 2.90362 47.159 2.02753 46.0325 2.0025C44.8811 1.97747 44.005 2.87859 44.005 4.08009C44.005 6.0075 44.005 7.95994 44.005 9.88735C44.005 11.1139 44.8561 11.99 46.0075 11.99C47.1339 11.99 47.985 11.1139 48.01 9.88735C48.01 8.93616 48.01 7.98498 48.01 7.00876Z" fill="#77B900"/>
<path d="M47.0339 33.9924C54.1427 33.9924 60.0001 39.8498 60.0001 46.9586C60.0001 54.1426 54.1928 59.9999 47.0339 59.9749C39.7748 59.9749 33.9926 54.1677 33.9926 46.8835C34.0176 39.8247 39.8749 34.0175 47.0339 33.9924ZM36.0201 47.0588C36.0201 53.0663 40.9513 57.9974 47.0088 58.0225C53.0163 58.0475 57.9976 53.0913 58.0226 47.0838C58.0226 41.0262 53.1165 36.045 47.1089 36.045C40.9513 35.9949 36.0201 40.9011 36.0201 47.0588Z" fill="#77B900"/>
<path d="M11.99 32.015C11.3391 32.015 10.6883 32.015 10.0625 32.015C8.88607 31.9899 8.06004 31.1639 8.03501 30.0125C8.00998 29.0112 8.00998 28.0099 8.03501 27.0087C8.06004 25.8573 8.88607 25.0312 10.0125 25.0312C11.3391 25.0062 12.6908 25.0062 14.0175 25.0312C15.1439 25.0563 15.995 25.8823 16.02 27.0087C16.045 28.035 16.045 29.0613 16.02 30.0625C15.995 31.1639 15.1689 31.9899 14.0676 32.015C13.3667 32.015 12.6658 31.9899 11.99 32.015ZM10.0375 29.9624C11.3892 29.9624 12.6658 29.9624 13.9674 29.9624C13.9674 28.9611 13.9674 27.9849 13.9674 27.0337C12.6408 27.0337 11.3642 27.0337 10.0375 27.0337C10.0375 28.0099 10.0375 28.9611 10.0375 29.9624Z" fill="#77B900"/>
<path d="M24.03 25.0062C24.7059 25.0062 25.3567 24.9812 26.0325 25.0062C27.1339 25.0313 27.9599 25.8573 27.985 26.9587C28.01 28.01 28.01 29.0363 27.985 30.0876C27.9599 31.1639 27.1339 31.9649 26.0575 31.99C24.6808 32.015 23.3041 32.015 21.9274 31.99C20.851 31.9649 20.025 31.1389 20 30.0626C19.9749 29.0112 19.9749 27.985 20 26.9336C20.025 25.8323 20.851 25.0313 21.9524 24.9812C22.6783 24.9812 23.3542 25.0062 24.03 25.0062ZM22.0275 29.9624C23.3792 29.9624 24.6808 29.9624 25.9574 29.9624C25.9574 28.9612 25.9574 27.985 25.9574 27.0338C24.6308 27.0338 23.3542 27.0338 22.0275 27.0338C22.0275 28.01 22.0275 28.9612 22.0275 29.9624Z" fill="#77B900"/>
<path d="M35.995 32.015C35.3441 32.015 34.6933 32.015 34.0675 32.015C32.8911 31.9899 32.065 31.1639 32.04 30.0125C32.015 29.0112 32.015 28.0099 32.04 27.0087C32.065 25.8573 32.8911 25.0312 34.0175 25.0312C35.3441 25.0062 36.6958 25.0062 38.0225 25.0312C39.199 25.0563 40 25.8823 40.025 27.0588C40.05 28.035 40.05 29.0112 40.025 29.9874C40 31.1639 39.1739 31.9899 37.9975 32.015C37.3216 32.015 36.6458 32.015 35.995 32.015ZM37.9975 27.0588C36.6958 27.0588 35.3692 27.0588 34.0675 27.0588C34.0675 28.035 34.0675 29.0112 34.0675 29.9624C35.3942 29.9624 36.6958 29.9624 37.9975 29.9624C37.9975 28.9862 37.9975 28.035 37.9975 27.0588Z" fill="#77B900"/>
<path d="M48.035 32.0151C47.3592 32.0151 46.7084 32.0401 46.0325 32.0151C44.856 31.9901 44.03 31.164 44.005 29.9875C43.9799 28.9863 43.9799 27.985 44.005 26.9838C44.03 25.8574 44.856 25.0314 46.0075 25.0063C47.3341 24.9813 48.6858 24.9813 50.0125 25.0063C51.1389 25.0314 51.99 25.8574 52.015 26.9838C52.04 28.0101 52.04 29.0364 52.015 30.0376C51.99 31.139 51.1639 31.94 50.0375 31.9901C49.3867 32.0151 48.7109 32.0151 48.035 32.0151ZM49.9875 27.0589C48.6358 27.0589 47.3341 27.0589 46.0575 27.0589C46.0575 28.0601 46.0575 29.0364 46.0575 29.9875C47.3842 29.9875 48.6608 29.9875 49.9875 29.9875C49.9875 28.9863 49.9875 28.0351 49.9875 27.0589Z" fill="#77B900"/>
<path d="M12.015 41.0013C11.3392 41.0013 10.6883 41.0263 10.0125 41.0013C8.83602 40.9763 8.00999 40.1502 7.98496 38.9737C7.95993 37.9975 7.95993 37.0213 7.98496 36.0451C8.00999 34.8686 8.81099 34.0426 9.98746 34.0176C11.3141 33.9925 12.6658 33.9925 13.9925 34.0176C15.1189 34.0426 15.9449 34.8686 15.9699 35.995C15.995 36.9963 15.995 37.9975 15.9699 38.9988C15.9449 40.1753 15.1189 40.9763 13.9424 41.0013C13.3166 41.0263 12.6658 41.0013 12.015 41.0013ZM13.9674 38.9737C13.9674 37.9475 13.9674 36.9963 13.9674 36.0451C12.6157 36.0451 11.3392 36.0451 10.0375 36.0451C10.0375 37.0463 10.0375 37.9975 10.0375 38.9737C11.3642 38.9737 12.6408 38.9737 13.9674 38.9737Z" fill="#77B900"/>
<path d="M24.055 33.9926C24.7059 33.9926 25.3567 33.9926 25.9825 33.9926C27.1589 34.0176 27.985 34.8436 28.01 36.0201C28.035 36.9963 28.035 37.9725 28.01 38.9488C27.985 40.1503 27.1589 40.9763 25.9324 40.9763C24.6308 41.0013 23.3542 41.0013 22.0525 40.9763C20.851 40.9513 20.025 40.1252 20 38.9237C19.9749 37.9725 19.9749 36.9963 20 36.0451C20.025 34.7936 20.851 33.9926 22.1026 33.9675C22.7534 33.9926 23.4042 33.9926 24.055 33.9926ZM22.0525 36.0451C22.0525 37.0464 22.0525 38.0226 22.0525 38.9738C23.4042 38.9738 24.6808 38.9738 25.9825 38.9738C25.9825 37.9725 25.9825 37.0213 25.9825 36.0451C24.6558 36.0451 23.3792 36.0451 22.0525 36.0451Z" fill="#77B900"/>
<path d="M12.015 50.0125C11.3391 50.0125 10.6883 50.0375 10.0125 50.0125C8.83602 49.9875 8.03502 49.1614 8.00998 47.985C7.98495 47.0088 7.98495 46.0325 8.00998 45.0563C8.03502 43.8798 8.86105 43.0538 10.0125 43.0288C11.3391 43.0038 12.6908 43.0038 14.0175 43.0288C15.1439 43.0538 15.9699 43.8798 15.995 45.0313C16.02 46.0325 16.02 47.0338 15.995 48.035C15.9699 49.1865 15.1439 49.9875 14.0175 50.0375C13.3416 50.0125 12.6908 50.0125 12.015 50.0125ZM10.0375 45.0313C10.0375 46.0325 10.0375 46.9837 10.0375 47.96C11.3642 47.96 12.6658 47.96 13.9424 47.96C13.9424 46.9587 13.9424 45.9825 13.9424 45.0313C12.6408 45.0313 11.3391 45.0313 10.0375 45.0313Z" fill="#77B900"/>
<path d="M24.005 50.0125C23.3291 50.0125 22.6783 50.0375 22.0025 50.0125C20.8761 49.9875 20.025 49.1614 20 48.035C19.9749 47.0088 19.9749 45.9825 20 44.9812C20.025 43.8798 20.851 43.0538 21.9524 43.0288C23.3041 43.0038 24.6558 43.0038 26.0075 43.0288C27.1089 43.0538 27.9349 43.8798 27.9599 44.9812C27.985 46.0325 27.985 47.0588 27.9599 48.1101C27.9349 49.1865 27.1089 49.9875 26.0325 50.0375C25.3817 50.0125 24.7059 50.0125 24.005 50.0125ZM25.9825 45.0313C24.6308 45.0313 23.3542 45.0313 22.0525 45.0313C22.0525 46.0325 22.0525 46.9837 22.0525 47.9349C23.3792 47.9349 24.6808 47.9349 25.9825 47.9349C25.9825 46.9837 25.9825 46.0325 25.9825 45.0313Z" fill="#77B900"/>
<path d="M34.0425 35.995C34.0425 37.0213 34.0425 37.9725 34.0425 38.9487C34.1677 38.9988 34.3179 39.0488 34.443 39.0989C34.8936 39.3242 35.0938 39.6997 34.9937 40.1753C34.8936 40.6759 34.5431 40.9512 34.0175 40.9763C33.0413 41.0263 32.065 40.1502 32.04 39.1239C31.9899 38.0476 32.015 36.9462 32.04 35.8699C32.065 34.8686 32.866 34.0426 33.8673 33.9925C35.244 33.9425 36.6207 33.9675 37.9975 33.9925C38.5982 33.9925 38.9987 34.4181 39.0237 34.9687C39.0488 35.5445 38.6232 35.97 37.9975 35.995C36.6958 36.0201 35.3942 35.995 34.0425 35.995Z" fill="#77B900"/>
<path d="M45.0062 50.5882C45.2315 50.3879 45.3817 50.2378 45.5569 50.0625C47.8598 47.7597 50.1627 45.4568 52.4405 43.1789C52.5657 43.0538 52.6909 42.9036 52.841 42.7784C53.2916 42.428 53.8173 42.453 54.1927 42.8285C54.5682 43.204 54.5932 43.7296 54.2178 44.1802C54.1427 44.2553 54.0676 44.3304 53.9925 44.4055C51.2891 47.1088 48.5857 49.8373 45.8573 52.5406C45.2315 53.1664 44.7309 53.1664 44.0801 52.5156C42.7785 51.214 41.4768 49.9374 40.2002 48.6358C39.6495 48.0851 39.5995 47.5093 40.0751 47.0588C40.5256 46.6332 41.0763 46.6833 41.602 47.209C42.7534 48.3103 43.8548 49.4117 45.0062 50.5882Z" fill="#77B900"/>
</g>
<defs>
<clipPath id="clip0_47_163">
<rect width="60.025" height="60" fill="white"/>
</clipPath>
</defs>
</svg>
