<svg width="44" height="60" viewBox="0 0 44 60" fill="none" xmlns="http://www.w3.org/2000/svg">
<g clip-path="url(#clip0_47_145)">
<path d="M33.4611 58.2166C33.4611 55.659 33.4611 53.1717 33.4611 50.7078C33.4611 50.4967 33.4376 50.2855 33.4845 50.0743C33.5549 49.6519 33.8131 49.3703 34.2589 49.3234C34.7282 49.2765 35.0567 49.5346 35.174 49.9804C35.221 50.1916 35.221 50.4028 35.221 50.614C35.221 52.9135 35.221 55.2131 35.221 57.5361C35.221 57.7473 35.221 57.9585 35.221 58.1932C36.9104 58.1932 38.5295 58.2636 40.1721 58.1697C41.2045 58.1228 41.6269 57.3954 41.4392 56.269C41.1341 54.5796 40.8056 52.8901 40.4771 51.2006C39.9609 48.5725 39.4212 45.921 38.8815 43.2929C38.553 41.6973 37.5675 40.6883 36.0657 40.1486C34.9394 39.7731 33.8131 39.3742 32.6398 38.9753C32.5225 39.1865 32.4052 39.3742 32.3113 39.562C30.0587 43.7387 27.7826 47.939 25.5299 52.1157C24.4036 54.2041 22.3621 55.0489 20.2738 54.3449C19.3586 54.0399 18.6077 53.4767 18.115 52.632C16.9887 50.614 15.8858 48.5725 14.7829 46.5311C14.5014 46.0148 14.6656 45.4986 15.1115 45.264C15.5573 45.0293 16.0501 45.1936 16.3316 45.7333C17.3406 47.5635 18.3262 49.3938 19.3117 51.2241C19.6637 51.8811 20.1095 52.4208 20.8369 52.6789C21.8224 53.0074 22.9253 52.7024 23.5823 51.8811C23.7231 51.6934 23.8639 51.5056 23.9578 51.2945C26.2339 47.1177 28.4865 42.9175 30.7391 38.7407C30.7861 38.6468 30.833 38.5295 30.9034 38.3652C30.4576 38.201 30.0352 38.0602 29.5894 37.9194C29.472 38.1306 29.3547 38.3183 29.2608 38.4826C27.0786 42.5186 24.8964 46.5311 22.7141 50.567C22.4795 51.0129 22.1979 51.3883 21.6113 51.4118C21.0246 51.4118 20.7431 51.0363 20.5084 50.5905C18.3262 46.578 16.1674 42.5655 13.9851 38.553C13.8678 38.3418 13.7739 38.1541 13.6332 37.9194C13.1873 38.0837 12.765 38.2245 12.2957 38.3887C12.8823 39.4681 13.422 40.5006 13.9851 41.5096C14.079 41.6973 14.1963 41.885 14.2667 42.0727C14.431 42.542 14.3136 42.9409 13.8913 43.1756C13.4454 43.4102 13.0231 43.2929 12.765 42.894C12.4599 42.4247 12.2018 41.9085 11.9437 41.4157C11.4978 40.6179 11.0755 39.8201 10.6062 38.9519C9.26867 39.4212 7.93116 39.8435 6.64059 40.3598C5.23269 40.9464 4.5522 42.1196 4.27062 43.551C3.47281 47.6339 2.65154 51.6934 1.85373 55.7763C1.8068 55.9875 1.78333 56.1986 1.78333 56.4098C1.71294 57.5127 2.18224 58.0993 3.28509 58.1462C4.83378 58.1932 6.40594 58.1697 8.04849 58.1697C8.04849 57.9351 8.04849 57.7473 8.04849 57.5361C8.04849 55.2131 8.04849 52.8901 8.04849 50.567C8.04849 50.3793 8.04849 50.1681 8.07195 49.9804C8.18928 49.5346 8.47086 49.253 8.94016 49.2765C9.40946 49.2999 9.69104 49.5815 9.76143 50.0274C9.7849 50.2151 9.7849 50.4263 9.7849 50.614C9.7849 52.8901 9.7849 55.1896 9.7849 57.4658C9.7849 57.6769 9.7849 57.8881 9.7849 58.1697C10.0665 58.1697 10.2777 58.1697 10.5123 58.1697C16.097 58.1697 21.6817 58.1697 27.2663 58.1697C28.2049 58.1697 28.6508 58.4748 28.6273 59.0848C28.6038 59.6715 28.1815 59.9296 27.2663 59.9296C19.4994 59.9296 11.7325 59.9296 3.94211 59.9296C3.59014 59.9296 3.23816 59.9296 2.88619 59.8826C0.703944 59.5541 -0.398911 57.9116 0.0703889 55.5886C0.938594 51.3883 1.75987 47.1177 2.675 42.8705C3.09737 40.8525 4.31755 39.3742 6.28861 38.6703C8.61165 37.8256 10.9816 37.0981 13.2812 36.183C14.1729 35.831 14.9472 35.1975 15.745 34.6343C16.097 34.3762 15.8858 33.0622 15.5104 32.8275C12.8353 31.185 11.052 28.8385 10.2542 25.788C10.1134 25.2718 10.043 24.7321 9.92569 24.1689C8.82283 24.122 7.8373 23.817 7.08642 22.9722C6.26515 22.0336 6.0305 21.0012 6.38247 19.781C6.54673 19.1943 6.54673 18.5608 6.54673 17.9272C6.52326 15.8858 6.45287 13.8209 6.87524 11.8029C7.22721 10.0665 7.9077 8.44738 8.86976 6.96908C9.22174 6.42939 9.7145 6.2886 10.1603 6.57018C10.5827 6.82829 10.7 7.34452 10.3715 7.86075C9.40946 9.43291 8.68204 11.0755 8.49432 12.9292C8.33007 14.5248 8.3066 16.1439 8.21274 17.8099C8.79937 17.7161 9.29213 17.6691 9.73797 17.5753C9.85529 17.5518 9.99608 17.3641 10.043 17.2233C10.7704 14.9003 12.6007 13.727 15.0176 14.032C18.772 14.4779 22.2917 13.8443 25.4595 11.6152C25.788 11.3805 26.0696 11.1224 26.3981 10.9112C27.2898 10.2542 28.3692 10.395 28.9558 11.3101C29.6598 12.413 30.5749 13.1638 31.9124 13.375C32.6867 13.4924 33.0152 14.0086 33.0622 14.8533C33.0856 15.5338 33.0622 16.2143 33.0622 16.8948C33.0622 17.106 33.0622 17.3171 33.0622 17.5283C33.6019 17.6222 34.0946 17.7161 34.6813 17.8334C34.4935 15.1349 34.9863 12.4364 34.3058 9.76142C33.9304 8.35352 33.2264 7.18027 31.8889 6.45285C31.6777 6.33553 31.49 6.14781 31.3023 5.96009C28.3926 2.76885 24.7086 1.57213 20.4849 1.83025C17.8569 1.9945 15.4869 2.9331 13.3985 4.55219C13.2812 4.64605 13.1404 4.73991 13.0231 4.83377C12.5303 5.16228 12.0141 5.11535 11.7325 4.71644C11.4274 4.31754 11.5213 3.80131 11.9906 3.42587C13.4924 2.20569 15.1349 1.24362 16.9887 0.703928C21.9163 -0.727436 26.5154 -0.0704165 30.7157 2.98003C30.9269 3.14429 31.138 3.33201 31.3492 3.49626C32.3348 4.36447 33.3907 5.18574 34.3058 6.12434C35.7607 7.64957 36.3238 9.5737 36.3707 11.6386C36.4411 14.079 36.3942 16.5193 36.3942 18.9597C36.3942 19.1943 36.3942 19.429 36.4881 19.6402C37.3328 21.5878 35.9014 23.8169 33.5549 24.0985C33.3907 24.122 33.203 24.122 33.0856 24.122C32.7806 25.1545 32.5694 26.1635 32.194 27.1255C31.3258 29.4016 29.8475 31.185 27.806 32.5225C27.4775 32.7337 27.3836 32.9918 27.3367 33.3672C27.2429 34.2354 27.5479 34.7516 28.2988 35.1975C29.167 35.7372 30.0352 36.2065 30.9973 36.535C33.0622 37.2155 35.1036 37.896 37.1216 38.6703C38.9988 39.3977 40.1721 40.8525 40.571 42.8001C41.4626 47.0708 42.3074 51.3649 43.1521 55.659C43.4806 57.325 42.9644 58.7563 41.7677 59.3899C41.2045 59.6949 40.524 59.8827 39.867 59.9061C37.2624 59.9765 34.6343 59.9296 32.0062 59.9296C31.3727 59.9296 30.9738 59.5541 30.9738 59.0379C30.9738 58.5217 31.3727 58.1932 32.0062 58.1697C32.499 58.2166 32.9449 58.2166 33.4611 58.2166ZM11.756 20.2737C11.756 21.5408 11.6621 22.8314 11.7794 24.0751C11.8733 25.0606 12.1314 26.0931 12.5538 26.9847C14.5248 31.1146 18.5843 33.3203 23.0661 32.5459C28.9558 31.5369 32.0532 26.4685 31.1146 20.2503C30.9269 20.438 30.7626 20.6726 30.7157 20.9308C30.6453 21.2593 30.6922 21.5878 30.6687 21.9163C30.528 23.6058 29.3782 24.779 27.6887 24.8729C26.844 24.9198 25.9992 24.9198 25.1779 24.8729C23.3946 24.779 22.1744 23.5354 22.104 21.752C22.104 21.4939 22.104 21.2123 22.104 20.9308C21.6347 20.9308 21.2358 20.9308 20.8134 20.9308C20.8134 21.2358 20.8134 21.4705 20.8134 21.7286C20.7665 23.5119 19.5463 24.779 17.763 24.8729C16.8713 24.9198 15.9562 24.8963 15.0645 24.8494C14.2432 24.8259 13.5862 24.427 13.0231 23.8404C12.2722 23.0191 12.1549 22.0336 12.2253 21.0012C12.2487 20.6022 12.1549 20.3441 11.756 20.2737ZM27.501 12.2722C27.3367 12.3895 27.2194 12.4599 27.1255 12.5538C24.6148 14.5717 21.752 15.6746 18.5373 15.8389C17.2702 15.9092 16.0031 15.8154 14.736 15.7215C13.6332 15.6511 12.718 15.8858 12.0845 16.8244C11.404 17.8099 11.4978 18.115 12.5538 18.6312C12.5772 18.6312 12.6007 18.6312 12.6476 18.6312C13.1404 18.0446 13.7974 17.7161 14.5952 17.7161C15.8389 17.7161 17.0825 17.6926 18.3496 17.7161C19.2413 17.7395 19.9687 18.0446 20.4615 18.8424C20.5553 18.9832 20.79 19.077 20.9777 19.1005C21.2358 19.1474 21.5174 19.1005 21.799 19.124C22.1275 19.1474 22.3387 19.0536 22.5029 18.7485C22.8314 18.2088 23.3242 17.8099 23.9578 17.7864C25.5534 17.7395 27.149 17.7161 28.7446 17.7864C29.1435 17.8099 29.5424 18.1384 29.9413 18.3261C30.1291 18.42 30.3872 18.5843 30.481 18.5373C30.7861 18.3496 31.2788 18.3261 31.2554 17.7864C31.2554 16.9652 31.2554 16.1439 31.2319 15.3226C31.2319 15.1818 31.0677 14.9706 30.9269 14.9237C29.4251 14.5717 28.3222 13.6566 27.501 12.2722ZM21.6347 39.1161C22.8549 37.7552 23.9812 36.4646 25.1779 35.1975C25.6003 34.7516 25.6942 34.3293 25.5534 33.7192C22.9488 34.6812 20.3207 34.6812 17.5753 33.813C17.6457 34.2119 17.5987 34.6108 17.7865 34.822C19.0301 36.2534 20.2972 37.6378 21.6347 39.1161ZM16.4959 23.0895C16.4959 23.113 16.4959 23.113 16.4959 23.0895C16.8713 23.113 17.2468 23.113 17.5987 23.113C18.5139 23.0661 19.0301 22.5498 19.0536 21.6347C19.077 21.1185 19.0536 20.6257 19.0536 20.1095C19.0536 19.7106 18.8424 19.4759 18.4669 19.4759C17.1764 19.4525 15.8858 19.4759 14.6187 19.4759C14.2667 19.4759 14.0086 19.6636 14.0086 20.0391C14.0086 20.6492 13.9851 21.2593 14.0321 21.8459C14.079 22.5733 14.5483 23.0191 15.2757 23.0895C15.6746 23.1365 16.0735 23.0895 16.4959 23.0895ZM26.3981 19.4759C25.8115 19.4759 25.2249 19.4759 24.6382 19.4759C24.6148 19.4759 24.5913 19.4759 24.5913 19.4759C24.0985 19.4759 23.8639 19.7106 23.8874 20.2033C23.8874 20.6961 23.8639 21.1889 23.8874 21.6582C23.9343 22.5733 24.4271 23.0895 25.3657 23.1365C26.0931 23.1599 26.797 23.1599 27.5244 23.1365C28.4161 23.113 28.9089 22.5968 28.9558 21.7051C28.9793 21.2123 28.9558 20.7196 28.9558 20.2503C28.9793 19.734 28.7446 19.4994 28.2284 19.4994C27.5948 19.4759 26.9847 19.4759 26.3981 19.4759ZM15.2522 37.1451C16.1674 38.8111 17.0356 40.4302 17.9273 42.0727C18.7485 41.4626 19.5229 40.8995 20.3207 40.2894C19.0536 38.8815 17.8569 37.544 16.6132 36.183C16.1674 36.5115 15.7215 36.8166 15.2522 37.1451ZM26.6328 36.183C25.3891 37.5674 24.1924 38.9049 22.9253 40.3128C23.7466 40.9229 24.5209 41.4861 25.3422 42.0727C26.2339 40.4067 27.1255 38.7876 28.0172 37.1451C27.5244 36.8166 27.1021 36.5115 26.6328 36.183ZM21.6347 48.9245C21.8224 48.596 21.9398 48.3144 22.104 48.1032C22.761 47.2585 22.8314 46.3903 22.3621 45.4047C22.1979 45.0528 22.104 44.7947 21.6113 44.7947C21.1185 44.7947 21.0246 45.0528 20.9308 45.4047C20.8134 45.7802 20.6727 46.1322 20.5788 46.5076C20.5319 46.6484 20.5084 46.8361 20.5788 46.9534C20.8838 47.587 21.2358 48.2205 21.6347 48.9245ZM9.83183 22.3387C9.83183 21.3297 9.83183 20.3441 9.83183 19.3586C8.79937 19.2882 7.97809 19.9452 7.95463 20.8134C7.93116 21.6816 8.75244 22.3621 9.83183 22.3387ZM33.0622 22.3621C34.212 22.3621 35.0098 21.6582 34.9628 20.8134C34.9159 19.9687 34.0712 19.3117 33.0856 19.4055C33.0622 19.5463 33.0622 19.7106 33.0387 19.8514C33.0622 20.6492 33.0622 21.4939 33.0622 22.3621ZM20.6961 42.2839C20.79 42.9175 21.142 43.1052 21.7755 43.0817C22.3856 43.0583 22.4091 42.6359 22.5733 42.2839C21.4939 41.4157 21.799 41.3453 20.6961 42.2839ZM19.4759 44.4661C19.429 44.0907 19.3586 43.7387 19.2882 43.2929C18.7016 43.6918 18.7251 43.8326 19.4759 44.4661ZM23.7935 44.4661C23.8639 44.4661 23.9343 44.4661 24.0047 44.4896C24.5678 43.6449 24.5678 43.6449 23.9578 43.3633C23.8874 43.7622 23.8404 44.1142 23.7935 44.4661Z" fill="#77B900"/>
</g>
<defs>
<clipPath id="clip0_47_145">
<rect width="43.2695" height="60" fill="white"/>
</clipPath>
</defs>
</svg>
