<svg width="60" height="60" viewBox="0 0 60 60" fill="none" xmlns="http://www.w3.org/2000/svg">
<path d="M50.9147 10.0496C52.018 11.2652 53.0978 12.4566 54.201 13.6236C54.2949 13.7209 54.5531 13.6966 54.7174 13.6479C55.4686 13.4291 56.2197 13.2103 56.9709 12.9429C57.5342 12.7483 57.9802 12.8699 58.3793 13.3319C58.7548 13.7938 59.1773 14.2071 59.5764 14.6448C60.2102 15.3499 60.1398 15.9334 59.3182 16.3953C58.0741 17.1004 56.8065 17.8055 55.5625 18.5349C55.3042 18.6808 55.0695 18.9239 54.9287 19.1914C54.2245 20.4557 53.5672 21.7443 52.91 23.0086C52.417 23.9325 51.9006 24.0054 51.1729 23.2517C50.7269 22.7898 50.3044 22.3278 49.8584 21.8902C49.5063 21.5255 49.389 21.1365 49.5533 20.6259C49.8115 19.8722 49.9993 19.0698 50.234 18.3161C50.3514 17.9757 50.3044 17.7326 50.0227 17.4651C48.943 16.4683 47.9101 15.4228 46.8538 14.4017C46.8304 14.3773 46.7834 14.3773 46.6895 14.3287C46.2201 15.204 45.7037 16.1036 45.2811 17.0032C45.2107 17.1491 45.3516 17.4651 45.4924 17.6353C47.0182 19.7992 48.1684 22.1576 48.8256 24.7348C50.4687 31.032 49.6941 37.0131 46.3844 42.5565C43.8727 46.8114 40.3048 49.8505 35.7979 51.6254C31.9483 53.1571 28.0048 53.4489 23.9439 52.6952C16.0099 51.1878 9.03829 44.38 7.1839 36.2594C6.05718 31.3237 6.36233 26.534 8.33409 21.8902C10.212 17.4165 13.2165 13.9397 17.3009 11.4841C20.6811 9.53898 24.3194 8.51782 28.216 8.54214C32.3708 8.56645 36.2204 9.73349 39.718 12.0676C39.9996 12.2621 40.2813 12.4323 40.6334 12.6511C40.962 11.557 41.2907 10.5115 41.5723 9.44173C41.5958 9.32016 41.455 9.07703 41.3141 8.95546C40.4221 8.05587 39.5067 7.22921 38.6617 6.30531C37.9809 5.57591 37.3002 4.96807 36.3378 4.70063C35.7744 4.55475 35.5397 3.99554 35.704 3.50927C35.8918 2.97438 36.2908 2.77987 36.8307 2.90144C36.9481 2.92575 37.0655 2.95006 37.042 2.95006C37.5115 2.22066 37.8636 1.46695 38.4034 0.932056C39.7414 -0.380865 41.5489 -0.283611 42.8399 1.07794C43.8258 2.14772 44.8117 3.21751 45.7741 4.31161C46.0088 4.57906 46.2435 4.652 46.5956 4.53043C49.5533 3.58221 52.5344 2.68262 55.492 1.71008C56.1258 1.51558 56.6188 1.58852 57.0648 2.12341C57.5577 2.70693 58.0976 3.21751 58.6375 3.75241C59.4356 4.57906 59.3651 5.13827 58.4027 5.69747C56.1493 7.01039 53.8724 8.32332 51.5955 9.61192C51.3607 9.78212 51.1729 9.90368 50.9147 10.0496ZM32.5821 50.6286C32.3473 48.9996 32.4647 47.3949 33.1219 45.8874C34.0139 43.8938 35.4223 42.2891 36.995 40.8546C38.1452 39.7848 39.3189 38.7393 40.3987 37.5966C41.901 35.9919 43.0042 34.1441 43.2155 31.81C43.3094 30.6916 43.4737 29.5002 44.3422 28.6979C45.1872 27.9199 46.1262 27.2877 47.0651 26.6313C47.3703 26.4125 47.4642 26.2423 47.3703 25.9019C47.1825 25.294 47.0416 24.6619 46.8304 24.0541C46.2201 22.2549 45.3985 20.5772 44.2953 18.9726C43.7319 20.018 43.2155 21.0149 42.6756 21.9874C42.1827 22.9113 41.6428 22.9843 40.9151 22.2792C40.3048 21.6713 39.7179 21.0392 39.1076 20.4557C38.7086 20.0667 38.5912 19.629 38.779 19.0941C39.2015 17.7326 39.5771 16.3467 39.9996 14.9852C40.0935 14.6448 40.0466 14.4503 39.7649 14.2315C37.7462 12.724 35.5397 11.6542 33.1219 10.9978C32.8637 10.9248 32.5821 10.9005 32.2065 10.8033C32.3708 11.0707 32.4647 11.2166 32.5586 11.3625C33.5445 13.0158 33.8496 14.7664 33.2393 16.6385C32.6994 18.3161 31.784 19.7506 30.5868 20.9419C28.3334 23.1788 25.986 25.3183 23.7091 27.5309C23.0519 28.163 22.4416 28.8681 21.9486 29.6218C21.174 30.7889 21.3148 31.7371 22.4416 32.5394C23.357 33.1959 24.4368 33.6578 25.3992 34.2413C26.3147 34.8006 27.2771 35.3598 28.0752 36.0648C29.2958 37.159 28.9437 38.6664 27.4179 39.2256C24.3899 40.2954 21.4087 40.0036 18.5215 38.6907C16.4559 37.7425 14.7423 36.308 13.0522 34.7762C11.9255 33.7794 10.7518 32.8312 9.60165 31.883C9.34344 31.6884 8.99134 31.6155 8.63924 31.4939C8.89745 44.5988 21.1505 53.6191 32.5821 50.6286ZM26.8546 37.4264C26.5494 37.1833 26.3616 36.9644 26.1269 36.8186C24.9532 36.1621 23.7326 35.5543 22.5589 34.8492C21.7843 34.3872 21.0097 33.8523 20.4229 33.1959C19.2492 31.883 19.2961 30.2296 20.4229 28.5277C21.6435 26.6799 23.357 25.3427 24.9063 23.8595C26.6902 22.1576 28.4742 20.48 30.1173 18.6322C31.2206 17.3922 31.8544 15.8361 31.5492 14.0613C31.3145 12.7483 30.6338 11.7029 29.7183 10.8276C29.507 10.6331 29.1784 10.4629 28.9202 10.4629C27.8404 10.4629 26.7372 10.4629 25.6574 10.6088C21.8078 11.095 18.4042 12.6511 15.47 15.2526C11.7377 18.5349 9.53123 22.7411 8.73314 27.7254C8.63924 28.3575 8.61577 28.9897 8.54535 29.6461C9.57818 29.7677 10.4232 30.181 11.1744 30.7889C12.5593 31.9802 13.9207 33.1959 15.3057 34.3872C17.5356 36.308 19.9534 37.7911 22.958 37.9613C24.2255 38.0342 25.5166 37.9856 26.8546 37.4264ZM57.6985 15.3256C57.4638 14.8879 57.2056 14.815 56.8065 14.9609C56.1258 15.204 55.4216 15.3742 54.7409 15.6173C54.0836 15.8848 53.6142 15.6903 53.1447 15.1554C51.8067 13.6479 50.4218 12.1891 49.0838 10.6817C48.3327 9.85506 48.4266 9.34448 49.389 8.78527C51.6894 7.47235 53.9663 6.18374 56.2667 4.87082C56.431 4.77357 56.5953 4.67631 56.7596 4.57906C56.0084 3.5579 56.0084 3.5579 54.9287 3.89829C52.1353 4.77357 49.3185 5.62453 46.5252 6.52413C45.821 6.74295 45.3516 6.62138 44.8586 6.06217C43.7788 4.82219 42.6521 3.60652 41.5254 2.39086C40.9151 1.7344 40.0935 1.7344 39.4597 2.39086C38.779 3.09594 38.779 3.89829 39.5067 4.62769C40.5865 5.69747 41.6662 6.81589 42.793 7.81273C43.4972 8.42057 43.6145 9.0284 43.3328 9.928C42.4174 12.8942 41.5723 15.8605 40.7038 18.851C40.6569 19.0455 40.6334 19.3373 40.7273 19.5075C40.8916 19.8235 41.1498 20.0667 41.4315 20.4314C41.6428 20.091 41.7367 19.8965 41.854 19.7263C43.1451 17.3436 44.4126 14.9609 45.7037 12.5782C46.1496 11.7515 46.6895 11.6542 47.3468 12.2864C48.8726 13.7695 50.3983 15.2526 51.9241 16.7357C52.3231 17.1247 52.417 17.5381 52.2527 18.0487C52.018 18.851 51.8067 19.6533 51.5485 20.4314C51.4077 20.8447 51.525 21.0878 51.9006 21.3066C52.464 20.2369 53.0508 19.1914 53.5672 18.1216C53.802 17.611 54.1306 17.2949 54.6 17.0518C55.6329 16.5169 56.6422 15.9091 57.6985 15.3256ZM34.3426 50.1666C44.2248 46.8357 48.9664 36.5754 47.6754 28.3089C46.314 29.1112 45.1168 29.9622 44.976 31.7614C44.8117 33.9253 44.037 35.8703 42.7225 37.5723C41.408 39.2985 39.8353 40.733 38.2157 42.1432C37.0185 43.1887 35.9857 44.3557 35.1876 45.7416C34.3895 47.0788 34.1078 48.5376 34.3426 50.1666Z" fill="#77B900"/>
<path d="M54.5062 32.0529C54.5296 31.591 54.5531 31.129 54.6001 30.6671C54.6705 30.0592 55.0226 29.7188 55.5625 29.7432C56.0554 29.7675 56.431 30.1079 56.431 30.6914C56.431 31.591 56.384 32.5149 56.3136 33.4145C56.2667 34.0223 55.8676 34.3627 55.3512 34.3141C54.8583 34.2898 54.5296 33.8764 54.5062 33.2686C54.5062 32.8553 54.5062 32.4663 54.5062 32.0529Z" fill="#77B900"/>
<path d="M22.8875 59.5272C22.1364 59.3327 21.1975 59.1139 20.282 58.7978C19.836 58.6519 19.6248 58.2143 19.7656 57.728C19.9064 57.2174 20.282 56.95 20.7984 57.0716C21.6669 57.2661 22.5354 57.4606 23.404 57.6794C23.9204 57.801 24.1316 58.19 24.0847 58.7249C24.0377 59.1868 23.6387 59.5029 22.8875 59.5272Z" fill="#77B900"/>
<path d="M30.2112 1.58847C30.9389 1.68572 31.69 1.75866 32.4177 1.85591C32.9811 1.95317 33.3332 2.36649 33.2862 2.87707C33.2393 3.41197 32.7933 3.80098 32.2065 3.75235C31.4084 3.67941 30.6103 3.58216 29.8357 3.46059C29.2019 3.36334 28.8967 2.97433 28.9437 2.41512C28.9906 1.88023 29.3897 1.56415 30.0469 1.58847C30.0939 1.58847 30.1643 1.58847 30.2112 1.58847C30.2112 1.61278 30.2112 1.61278 30.2112 1.58847Z" fill="#77B900"/>
<path d="M23.0518 3.99525C22.465 3.94662 22.1129 3.7278 22.0425 3.21722C21.9486 2.68233 22.1833 2.269 22.6763 2.14743C23.5917 1.95293 24.5072 1.83136 25.4461 1.73411C25.9625 1.68548 26.3146 2.02587 26.3616 2.53645C26.432 3.07134 26.1738 3.46035 25.6574 3.55761C24.7654 3.75211 23.8499 3.87368 23.0518 3.99525Z" fill="#77B900"/>
<path d="M0.235761 26.923C0.353128 26.2665 0.493968 25.3426 0.681755 24.443C0.799121 23.9081 1.24511 23.6163 1.73805 23.7136C2.20752 23.8109 2.53615 24.2728 2.46573 24.7834C2.32489 25.6587 2.18405 26.5339 2.01973 27.4092C1.90237 27.9684 1.50332 28.2602 1.01038 28.2116C0.517441 28.1629 0.212288 27.7739 0.235761 26.923Z" fill="#77B900"/>
<path d="M16.4089 6.32962C16.1272 6.01354 15.7517 5.79472 15.7047 5.47865C15.6343 5.18689 15.7986 4.62768 16.0099 4.50612C16.8784 4.01985 17.7938 3.65515 18.7328 3.31476C19.1318 3.16888 19.5778 3.3877 19.6717 3.80103C19.7421 4.1171 19.6952 4.72494 19.5074 4.82219C18.545 5.3814 17.5122 5.79472 16.4089 6.32962Z" fill="#77B900"/>
<path d="M40.4925 56.9013C40.3282 56.7555 39.9527 56.5609 39.8822 56.2935C39.8118 55.9774 39.8822 55.4425 40.0935 55.2967C40.8681 54.7375 41.7132 54.2512 42.5582 53.8135C42.9572 53.5947 43.4032 53.7649 43.5676 54.1539C43.6849 54.47 43.7084 55.1022 43.5441 55.248C42.699 55.8559 41.7601 56.3664 40.8446 56.9013C40.7977 56.9013 40.7273 56.877 40.4925 56.9013Z" fill="#77B900"/>
<path d="M2.01975 34.0225C2.01975 34.0225 2.01975 34.1684 2.01975 34.3143C2.01975 34.8978 1.69112 35.2868 1.22166 35.3597C0.75219 35.4327 0.282723 35.068 0.212303 34.4845C0.11841 33.6335 0.0479896 32.8068 0.00104287 31.9559C-0.0224305 31.348 0.353143 30.959 0.846083 30.9104C1.31555 30.8861 1.7146 31.2265 1.80849 31.7857C1.92586 32.4665 1.94933 33.1715 2.01975 34.0225Z" fill="#77B900"/>
<path d="M28.8029 59.9891C28.263 59.9891 27.8874 60.0134 27.5118 59.9891C26.925 59.9648 26.5494 59.6001 26.5259 59.0895C26.5025 58.6033 26.878 58.1413 27.4414 58.117C28.2864 58.0684 29.155 58.0684 30 58.0684C30.4929 58.0684 30.7981 58.4087 30.8216 58.9193C30.8685 59.4542 30.5868 59.8189 30.0704 59.8919C29.601 59.9648 29.108 59.9648 28.8029 59.9891Z" fill="#77B900"/>
<path d="M8.61576 12.0677C8.49839 12.3837 8.45145 12.5782 8.35755 12.7484C7.84114 13.4535 7.32473 14.1586 6.76137 14.8151C6.43274 15.2041 5.98675 15.2527 5.56423 14.961C5.16518 14.6692 5.04781 14.1343 5.35297 13.6723C5.86938 12.9429 6.38579 12.2135 6.9961 11.5571C7.18389 11.3383 7.7003 11.2653 7.98198 11.3626C8.24019 11.4598 8.4045 11.8488 8.61576 12.0677Z" fill="#77B900"/>
<path d="M3.87413 41.3408C3.61592 41.6083 3.40466 41.973 3.09951 42.1189C2.70046 42.3134 2.23099 42.1675 2.06668 41.7055C1.71458 40.7816 1.38595 39.8577 1.12775 38.9095C1.01038 38.4719 1.24511 38.1072 1.64416 37.937C2.06668 37.7668 2.53615 37.8154 2.72394 38.2531C3.14646 39.2013 3.47508 40.1981 3.87413 41.3408Z" fill="#77B900"/>
<path d="M11.7377 52.5006C11.7142 53.3272 10.9866 53.8378 10.4467 53.4488C9.64859 52.841 8.92091 52.1359 8.24019 51.4065C7.93503 51.0661 7.98198 50.6041 8.28713 50.2638C8.61576 49.8991 9.06175 49.8018 9.43733 50.1179C10.1415 50.7257 10.8223 51.3579 11.4795 52.0143C11.6438 52.1359 11.7142 52.4033 11.7377 52.5006Z" fill="#77B900"/>
<path d="M49.1307 50.0691C48.9195 50.4095 48.8256 50.7013 48.6378 50.9201C48.1214 51.4793 47.605 52.0142 47.0416 52.5248C46.5956 52.9624 46.0557 52.9624 45.6801 52.5734C45.3046 52.1844 45.3281 51.6252 45.7506 51.1632C46.2905 50.5797 46.8303 49.9962 47.4407 49.4856C47.6754 49.2911 48.1448 49.1938 48.4265 49.2911C48.7082 49.3883 48.8725 49.7773 49.1307 50.0691Z" fill="#77B900"/>
<path d="M17.5122 56.2205C17.4887 57.0958 16.8549 57.5577 16.2211 57.2416C15.4465 56.8769 14.6954 56.4393 13.9677 56.0017C13.4982 55.7099 13.3809 55.1993 13.6156 54.7374C13.8503 54.2997 14.3433 54.1052 14.8362 54.3483C15.6108 54.7374 16.362 55.1507 17.0896 55.6126C17.3009 55.7828 17.4183 56.0989 17.5122 56.2205Z" fill="#77B900"/>
<path d="M7.06655 47.6135C6.92571 47.7837 6.73792 48.1484 6.47972 48.2457C6.19804 48.3429 5.7051 48.27 5.54078 48.0755C4.95395 47.2975 4.43754 46.4708 3.9446 45.6198C3.73334 45.2308 3.87418 44.8175 4.22628 44.55C4.57838 44.2826 5.02437 44.2097 5.28258 44.55C5.91636 45.401 6.43277 46.3006 6.99613 47.2002C7.04308 47.2488 7.04308 47.3461 7.06655 47.6135Z" fill="#77B900"/>
<path d="M3.00563 21.3551C2.23101 21.3795 1.73807 20.7716 1.94933 20.1881C2.25449 19.3128 2.65353 18.4375 3.05258 17.6109C3.28731 17.1489 3.73331 17.003 4.20277 17.2462C4.67224 17.4893 4.83656 17.927 4.64877 18.4132C4.32014 19.2642 3.96804 20.0908 3.56899 20.8689C3.45163 21.112 3.14647 21.2579 3.00563 21.3551Z" fill="#77B900"/>
<path d="M55.5625 38.0585C55.3043 38.8365 55.0226 39.8333 54.6705 40.7816C54.5062 41.2435 54.0367 41.3165 53.6142 41.1463C53.1917 40.9761 52.9335 40.6114 53.0508 40.1494C53.2856 39.2255 53.5438 38.3259 53.8489 37.4506C54.0132 36.9887 54.4123 36.8671 54.8583 36.9401C55.2808 37.013 55.5625 37.402 55.5625 38.0585Z" fill="#77B900"/>
<path d="M50.9616 47.5407C50.187 47.5164 49.7175 46.8599 50.0227 46.2521C50.4452 45.4255 50.9382 44.6231 51.4546 43.8208C51.7363 43.4074 52.1588 43.3345 52.6048 43.5776C53.0273 43.8208 53.2151 44.2827 53.0038 44.7204C52.5578 45.5956 52.0414 46.4223 51.525 47.249C51.3607 47.4435 51.079 47.4921 50.9616 47.5407Z" fill="#77B900"/>
<path d="M10.611 10.0494C10.4232 9.8792 10.0476 9.70901 9.95375 9.44156C9.85985 9.1498 9.9068 8.63922 10.0946 8.46902C10.7753 7.81256 11.5265 7.25336 12.3011 6.71846C12.6767 6.45102 13.0992 6.57258 13.4043 6.93728C13.686 7.30198 13.7564 7.78825 13.4043 8.08001C12.6767 8.73647 11.8786 9.31999 11.1039 9.90351C11.01 9.97645 10.8692 9.97645 10.611 10.0494Z" fill="#77B900"/>
<path d="M56.0554 25.9748C56.0554 26.6313 55.8207 26.996 55.3277 27.0932C54.8582 27.1905 54.4357 26.9717 54.3184 26.4854C54.0836 25.5858 53.8958 24.6862 53.755 23.7623C53.6846 23.276 53.9663 22.887 54.4357 22.7655C54.9052 22.6439 55.3277 22.8384 55.4686 23.3247C55.7033 24.2486 55.8676 25.1968 56.0554 25.9748Z" fill="#77B900"/>
<path d="M37.5115 57.9468C37.3706 58.0683 37.1359 58.433 36.8307 58.5546C36.0796 58.8464 35.305 59.0409 34.5304 59.2354C33.9905 59.3813 33.521 59.0652 33.4036 58.5546C33.2863 58.044 33.521 57.6064 34.0374 57.4362C34.8355 57.1687 35.6571 56.9499 36.4552 56.7554C37.042 56.6095 37.5584 57.0958 37.5115 57.9468Z" fill="#77B900"/>
</svg>
