<svg width="60" height="60" viewBox="0 0 60 60" fill="none" xmlns="http://www.w3.org/2000/svg">
<path d="M45.9578 53.3669C44.8314 54.4683 43.7801 55.5447 42.6787 56.621C42.2782 56.1704 41.8777 55.7199 41.4021 55.2193C41.7025 54.8939 42.0779 54.4934 42.5285 54.0428C38.949 54.0428 35.4697 54.0428 31.9403 54.0428C31.5648 56.0203 30.6136 57.6473 28.9115 58.7987C27.5848 59.6999 26.133 60.0753 24.531 60.0002C21.9528 59.85 18.5485 57.9977 17.9728 53.392C16.8714 54.4934 15.7951 55.5697 14.7188 56.646C14.2682 56.1955 13.8176 55.7449 13.2669 55.1942C13.6925 54.8688 14.118 54.5434 14.5435 54.193C14.5185 54.1179 14.4684 54.0678 14.4434 53.9927C13.7926 53.9927 13.1418 53.9927 12.491 53.9927C6.60861 53.9176 1.70248 49.9877 0.325759 44.2806C-1.35134 37.1717 3.67995 29.9627 10.939 29.1116C11.9653 28.9865 13.0166 28.9865 14.093 28.9364C14.4434 27.009 15.3946 25.407 17.0216 24.2556C18.3483 23.3294 19.8251 22.9289 21.4271 23.004C24.8314 23.1542 27.1843 25.4821 28.0604 29.6123C29.1618 28.5109 30.2381 27.4345 31.3395 26.3582C31.7901 26.8088 32.2156 27.2593 32.7663 27.81C32.3408 28.1604 31.9403 28.5109 31.5147 28.8613C31.5398 28.9114 31.5648 28.9614 31.5898 28.9865C31.74 28.9865 31.8902 29.0115 32.0404 29.0115C37.1968 29.0115 42.3283 29.0365 47.4847 29.0115C53.5173 28.9865 58.1731 24.1304 57.9978 18.1229C57.8477 12.7662 53.4422 8.26056 48.1105 8.03528C46.083 7.96019 44.0304 8.01025 41.9528 8.01025C41.5773 10.0628 40.5761 11.7149 38.8239 12.8413C37.5223 13.7174 36.0454 14.0678 34.4935 13.9677C31.9152 13.7925 28.5611 11.9652 27.9853 7.4095C26.884 8.51088 25.8326 9.56219 24.7313 10.6636C24.2807 10.188 23.8552 9.73741 23.3295 9.18672C23.73 8.88635 24.1555 8.56094 24.5811 8.2105C24.531 8.16044 24.506 8.11038 24.4559 8.06031C20.9766 8.06031 17.4972 8.06031 13.9678 8.06031C13.5172 10.2631 12.3658 12.0153 10.3383 13.1417C8.8364 13.9677 7.23439 14.193 5.5573 13.8425C2.22814 13.1667 -0.124805 10.1129 0.0253831 6.6085C0.175571 3.25431 2.82889 0.450801 6.28321 0.0503008C9.11174 -0.275106 12.9666 1.30186 13.9678 5.98272C17.4472 5.98272 20.9265 5.98272 24.5811 5.98272C24.0805 5.55718 23.68 5.20675 23.2294 4.83128C23.8051 4.30562 24.2807 3.88009 24.7062 3.50462C25.7075 4.50587 26.7838 5.55718 27.9603 6.73365C28.1856 4.48084 29.0867 2.75368 30.7388 1.45205C31.9903 0.500864 33.3921 0.0252696 34.9691 0.0252696C38.3733 0.0252696 40.8764 2.15293 41.9278 6.00775C43.6299 6.00775 45.3571 5.95768 47.0842 6.03278C48.2106 6.08284 49.337 6.15794 50.4134 6.40825C56.1706 7.75994 60.1255 13.0165 59.9503 19.049C59.8001 24.7061 55.4697 29.7374 49.8126 30.7637C48.9365 30.9139 48.0354 30.989 47.1343 30.989C42.153 31.014 37.1718 30.989 32.1906 30.989C31.9653 30.989 31.74 30.989 31.5398 30.989C31.5147 31.039 31.4897 31.0641 31.4647 31.1141C31.8652 31.4646 32.2657 31.815 32.7162 32.1905C32.1405 32.7161 31.6649 33.1417 31.2394 33.5422C30.2382 32.5409 29.1618 31.4646 28.0354 30.3382C26.8589 34.8188 24.5811 36.9464 21.0016 36.9715C17.5723 36.9965 15.0942 34.8939 13.9928 31.014C9.68746 30.6886 6.08296 32.0653 3.67995 35.7699C1.30198 39.4746 1.27695 43.3544 3.60486 47.0841C6.08295 51.014 9.86268 52.3156 14.4935 51.9151C14.0179 51.5146 13.6174 51.1642 13.1668 50.8138C13.7676 50.2631 14.2432 49.8375 14.6687 49.4621C15.6699 50.4383 16.7213 51.5146 17.9228 52.6911C18.148 50.6636 18.8489 49.0616 20.2256 47.81C21.6024 46.5584 23.2044 45.9577 25.0567 45.9577C28.3858 45.9827 30.914 48.1855 31.8902 51.9151C35.3696 51.9151 38.8489 51.9151 42.5786 51.9151C42.0279 51.4646 41.6024 51.1392 41.1268 50.7637C41.7275 50.213 42.1781 49.7875 42.5786 49.412C43.6049 50.4383 44.6812 51.5146 45.8827 52.7161C46.133 50.4133 46.9841 48.6861 48.6612 47.4095C50.3132 46.1329 52.1906 45.7074 54.2682 46.0828C57.6474 46.6836 60.0754 49.8375 59.9002 53.3669C59.75 56.7462 56.9966 59.5747 53.5673 59.9251C50.5886 60.2505 46.5836 58.3231 45.9578 53.3669ZM7.05918 2.00274C4.30573 1.97771 2.02789 4.20549 2.02789 6.95894C2.02789 9.68735 4.23064 11.9402 6.95905 11.9902C9.71249 12.0153 12.0154 9.8125 12.0404 7.05906C12.0404 4.30562 9.81262 2.02777 7.05918 2.00274ZM30.0129 6.95894C29.9878 9.71238 32.2407 11.9902 34.9941 11.9902C37.7225 11.9902 39.9753 9.78747 40.0004 7.05906C40.0254 4.30562 37.7976 2.02777 35.0692 2.00274C32.2907 1.97771 30.0379 4.20549 30.0129 6.95894ZM26.0079 30.0378C26.0329 27.2843 23.7801 25.0065 21.0266 25.0065C18.2982 25.0065 16.0454 27.2092 16.0204 29.9377C15.9953 32.6911 18.2231 34.9689 20.9766 34.994C23.73 35.019 25.9828 32.7912 26.0079 30.0378ZM30.0129 52.9664C29.9878 50.213 27.735 47.9852 24.9816 48.0103C22.2532 48.0353 20.0254 50.2631 20.0254 53.0165C20.0254 55.77 22.2782 58.0228 25.0316 58.0228C27.7851 57.9727 30.0129 55.7199 30.0129 52.9664ZM53.0166 47.9852C50.2632 47.9852 48.0104 50.213 48.0104 52.9915C48.0104 55.7199 50.2382 57.9727 52.9666 57.9977C55.72 58.0228 57.9978 55.795 57.9978 53.0415C58.0229 50.2631 55.7701 48.0103 53.0166 47.9852Z" fill="#77B900"/>
</svg>
