<svg width="60" height="60" viewBox="0 0 60 60" fill="none" xmlns="http://www.w3.org/2000/svg">
<g clip-path="url(#clip0_153_6560)">
<path d="M26.1636 50.0039C25.6239 50.0039 25.1077 50.0508 24.6149 50.0039C23.4417 49.9101 22.4327 49.4173 21.6114 48.5725C18.2324 45.1936 14.83 41.8146 11.4745 38.4122C10.3482 37.2859 9.83197 35.9249 10.0901 34.3058C10.1135 34.212 10.1135 34.1181 10.1135 34.0242C10.1135 33.9773 10.0901 33.9538 10.0666 33.8365C8.91683 33.6488 7.76705 33.4611 6.5938 33.2734C5.30322 33.0622 4.01265 32.8979 2.72207 32.6633C0.469431 32.2644 -0.703819 29.7771 0.516361 27.853C2.53435 24.7086 4.59927 21.6113 6.68766 18.5373C7.462 17.3876 8.63525 16.754 10.0197 16.6367C12.7886 16.402 15.5574 16.1908 18.3028 15.9797C18.7487 15.9562 19.0068 15.7685 19.2649 15.4634C22.6439 11.5213 26.4686 8.09542 30.9739 5.46734C35.7139 2.7454 40.8292 1.19671 46.2262 0.469299C49.3705 0.0469287 52.5148 -0.140791 55.6826 0.117324C57.9821 0.305044 59.7889 2.04145 59.9063 4.31756C60.5633 17.3876 56.9497 28.8854 47.376 38.1541C46.4139 39.0692 45.4049 39.9374 44.4428 40.8526C44.2551 41.0403 44.0909 41.3688 44.0674 41.6269C43.8327 44.3958 43.6216 47.1881 43.3869 49.9804C43.2696 51.4587 42.5656 52.632 41.3455 53.4298C38.3185 55.4478 35.315 57.4658 32.2645 59.4368C30.223 60.7509 27.7123 59.6011 27.3134 57.2077C26.938 54.955 26.6094 52.7024 26.2575 50.4497C26.234 50.2855 26.1871 50.1212 26.1636 50.0039ZM52.1394 3.59014C52.1394 3.56668 52.1394 3.54321 52.1394 3.51975C51.2946 3.56668 50.4499 3.59014 49.6286 3.66054C44.6306 4.01251 39.7498 5.04497 35.2446 7.25068C26.9379 11.3101 20.9074 17.6926 16.5664 25.788C16.3787 26.14 16.5195 26.3043 16.7307 26.5154C22.3388 32.1001 27.9235 37.6848 33.5081 43.2929C33.8132 43.598 34.0244 43.6214 34.3529 43.4102C36.3239 42.1666 38.3654 41.0637 40.2426 39.7028C45.0999 36.0892 49.1358 31.7247 52.022 26.3981C54.3216 22.151 55.5652 17.5753 56.1519 12.8119C56.4804 10.1603 56.5977 7.53226 56.4334 4.85725C56.3865 4.01251 56.0345 3.66054 55.1898 3.61361C54.1808 3.54321 53.1483 3.59014 52.1394 3.59014ZM14.7831 29.6598C14.3607 31.4666 13.9149 33.203 13.5629 34.9863C13.516 35.2679 13.7272 35.6903 13.9618 35.9014C17.3408 39.3039 20.7432 42.7063 24.1456 46.1087C24.4976 46.4607 24.8965 46.578 25.3658 46.4607C25.6474 46.3903 25.9524 46.3668 26.234 46.2964C27.595 45.9445 28.9794 45.569 30.3404 45.217C25.1311 40.0078 20.0158 34.8925 14.7831 29.6598ZM40.3365 44.0673C40.2191 44.0673 40.1957 44.0673 40.1722 44.0673C36.9575 46.1322 33.5785 47.8451 29.918 48.9715C29.8007 49.0184 29.6364 49.2765 29.6599 49.4173C29.7068 49.9335 29.8007 50.4497 29.8945 50.9894C30.1527 52.7259 30.4342 54.4623 30.7158 56.1987C30.7862 56.1752 30.8331 56.1752 30.8801 56.1752C33.7193 54.298 36.5821 52.4208 39.4213 50.5201C39.656 50.3559 39.8437 50.0274 39.8906 49.7458C40.0549 47.8451 40.1957 45.9679 40.3365 44.0673ZM3.75453 29.3078C6.10103 29.6832 8.3302 30.0117 10.5594 30.3872C10.9817 30.4576 11.0521 30.1995 11.1225 29.9179C12.0846 26.797 13.4925 23.8639 15.182 21.0716C15.4401 20.6492 15.7217 20.2268 16.0502 19.7106C14.0087 19.8749 12.0846 20.0156 10.1839 20.2268C9.90236 20.2503 9.57385 20.5788 9.38613 20.8369C8.63525 21.8928 7.95477 22.9722 7.25082 24.0516C6.10103 25.7411 4.95125 27.4775 3.75453 29.3078Z" fill="#77B900"/>
<path d="M14.6894 47.2585C14.4547 47.6808 14.3139 48.1736 14.0089 48.4786C10.3718 52.1392 6.73472 55.7763 3.07418 59.4133C2.3233 60.1642 1.24391 60.1642 0.563423 59.4603C-0.140527 58.7563 -0.140527 57.6769 0.633818 56.9026C4.24743 53.2655 7.8845 49.6284 11.5216 46.0148C12.0847 45.4517 12.7652 45.2874 13.5161 45.569C14.1262 45.8506 14.5486 46.4841 14.6894 47.2585Z" fill="#77B900"/>
<path d="M19.9459 52.5147C19.7112 52.9371 19.5704 53.4298 19.2654 53.7349C17.4116 55.659 15.511 57.5362 13.6103 59.4134C12.8594 60.1643 11.78 60.1408 11.0996 59.4369C10.3956 58.7329 10.4191 57.677 11.1465 56.9261C13.0237 55.0254 14.9244 53.1482 16.8016 51.271C17.3412 50.7313 18.0217 50.5906 18.7491 50.8721C19.3827 51.1068 19.8051 51.7403 19.9459 52.5147Z" fill="#77B900"/>
<path d="M9.4094 42.0258C9.19822 42.4248 9.05743 42.8941 8.75238 43.1991C6.89865 45.0998 4.99798 47.0004 3.09732 48.8776C2.34644 49.6285 1.29051 49.6285 0.586563 48.9246C-0.117387 48.2206 -0.140852 47.1647 0.610028 46.4138C2.48723 44.5131 4.38789 42.6359 6.26509 40.7353C6.82825 40.1721 7.50874 40.0079 8.25962 40.3364C8.89317 40.6179 9.29208 41.2515 9.4094 42.0258Z" fill="#77B900"/>
<path d="M41.0874 27.6886C36.2302 27.6652 32.335 23.7465 32.335 18.8893C32.3584 14.032 36.3005 10.1134 41.1578 10.1368C46.0151 10.1603 49.9572 14.1259 49.9337 18.9597C49.8868 23.7935 45.9447 27.6886 41.0874 27.6886ZM35.8547 18.8658C35.8312 21.7755 38.1543 24.1454 41.0405 24.1689C43.9736 24.1924 46.3436 21.8693 46.3905 18.9597C46.414 16.0735 44.044 13.6566 41.1343 13.6566C38.2247 13.6331 35.8782 15.9796 35.8547 18.8658Z" fill="#77B900"/>
</g>
<defs>
<clipPath id="clip0_153_6560">
<rect width="59.9765" height="60" fill="white"/>
</clipPath>
</defs>
</svg>
