<svg width="61" height="60" viewBox="0 0 61 60" fill="none" xmlns="http://www.w3.org/2000/svg">
<path d="M29.0027 55.9874C22.1979 55.612 16.3785 53.1012 11.6152 48.3378C6.85176 43.5744 4.38793 37.7786 4.01249 30.9972C3.23815 30.9972 2.48727 30.9972 1.75985 30.9972C1.50174 30.9972 1.24362 31.0207 1.00897 30.9972C0.398883 30.9503 -2.17799e-05 30.5279 0.0234432 29.9647C0.0469082 29.425 0.422348 29.0261 1.00897 29.0027C1.71292 28.9792 2.41687 28.9792 3.12082 28.9792C3.4024 28.9792 3.66052 28.9792 4.01249 28.9792C4.36447 22.2447 6.85176 16.4254 11.6152 11.662C16.3785 6.87517 22.1979 4.38788 29.0027 4.01244C29.0027 3.28502 29.0027 2.58107 29.0027 1.87713C29.0027 1.61901 29.0027 1.3609 29.0027 1.12625C29.0262 0.422295 29.4251 -7.47964e-05 30.0352 0.0233902C30.5983 0.0468552 30.9972 0.44576 31.0207 1.12625C31.0442 1.87713 31.0207 2.60454 31.0207 3.35542C31.0207 3.56661 31.0207 3.77779 31.0207 4.0359C37.8021 4.41135 43.6214 6.89863 48.4083 11.6855C53.1717 16.4489 55.659 22.2447 56.0344 29.0261C56.621 29.0261 57.1842 29.0261 57.7473 29.0261C57.982 29.0261 58.2166 29.0261 58.4513 29.0261C59.5541 29.0261 60.0469 29.3312 60.0469 30.0586C60.0469 30.7391 59.5541 31.0441 58.4982 31.0441C57.8881 31.0441 57.278 31.0441 56.6914 31.0441C56.5037 31.0441 56.316 31.0676 56.1283 31.0676C55.964 32.3112 55.8701 33.5549 55.6355 34.7516C53.8052 43.7152 48.7133 50.0742 40.4067 53.899C39.7262 54.2041 39.1631 54.0398 38.9049 53.5001C38.6234 52.937 38.8815 52.3738 39.6089 52.0688C45.3344 49.5111 49.5111 45.4047 52.0688 39.6792C58.1697 25.9522 49.957 9.78483 35.2679 6.59359C22.6202 3.84818 10.1603 11.4508 6.85176 23.9342C3.33201 37.1919 11.8498 50.872 25.3187 53.5236C26.797 53.8286 28.3457 53.8756 29.8475 54.0163C30.7391 54.0867 31.0676 54.3683 31.0911 55.2835C31.0911 56.4567 31.0911 57.63 31.0911 58.8032C31.0911 59.5776 30.6922 60.0469 30.0586 60.0234C29.4486 59.9999 29.0966 59.5541 29.0966 58.8032C29.0027 57.8881 29.0027 56.9729 29.0027 55.9874Z" fill="#77B900"/>
<path d="M46.3905 30.4812C46.414 22.198 40.8762 15.487 33.1797 13.9618C28.9326 13.1171 24.967 13.868 21.2595 16.1441C21.0249 16.2849 20.7667 16.4491 20.5086 16.4726C20.0393 16.543 19.6639 16.3083 19.4996 15.839C19.3119 15.3228 19.4527 14.877 19.922 14.6423C21.4238 13.8914 22.8786 12.9998 24.4507 12.4835C35.1273 9.0107 46.6486 16.2614 48.1739 27.3838C49.5114 37.0748 43.2697 45.9446 33.696 48.0095C23.7937 50.1448 13.7976 43.4808 11.9204 33.4847C11.0992 29.1437 11.7327 25.0608 13.8446 21.189C13.9854 20.9075 14.2435 20.6024 14.525 20.5085C14.8066 20.4147 15.2525 20.4851 15.4871 20.6728C15.6983 20.8605 15.7687 21.2594 15.8156 21.5879C15.8391 21.7522 15.6983 21.9399 15.6044 22.1276C12.0378 28.8152 13.3049 36.629 18.7722 41.9086C24.6619 47.5872 34.2122 47.8687 40.4539 42.5891C44.3491 39.2806 46.2967 35.0568 46.3905 30.4812Z" fill="#77B900"/>
<path d="M29.0023 39.5852C24.1451 38.6466 21.3293 35.8308 20.4141 30.997C19.9448 30.997 19.4286 30.997 18.9359 30.997C18.185 30.9735 17.7391 30.5981 17.7626 29.988C17.7626 29.3779 18.2084 29.0025 18.9593 29.0025C19.4521 29.0025 19.9214 29.0025 20.4141 29.0025C21.3058 24.1921 24.1451 21.3529 29.0023 20.4143C29.0023 19.945 29.0023 19.4522 29.0023 18.936C29.0258 18.1851 29.4012 17.7393 30.0113 17.7393C30.6214 17.7393 30.9969 18.1851 31.0203 18.936C31.0203 19.4287 31.0203 19.898 31.0203 20.3908C35.8541 21.2825 38.6699 24.0983 39.6085 28.979C40.0778 28.979 40.5706 28.979 41.0633 28.979C41.8142 29.0025 42.2601 29.3779 42.2601 29.988C42.2601 30.5981 41.8142 30.997 41.0633 30.997C39.3973 30.997 37.7313 31.0204 36.0888 30.997C35.3614 30.997 34.939 30.6215 34.939 30.0115C34.9155 29.4014 35.3614 29.0025 36.0888 28.979C36.5581 28.9555 37.0039 28.979 37.4732 28.979C37.1447 25.7174 34.1646 22.7373 30.9969 22.5261C30.9969 22.9954 30.9969 23.4647 30.9969 23.9106C30.9734 24.638 30.598 25.0369 30.0113 25.0603C29.4012 25.0603 29.0023 24.638 28.9789 23.8871C28.9554 23.4413 28.9789 22.9954 28.9789 22.5496C26.2569 22.62 22.831 25.3419 22.526 28.979C22.9953 28.979 23.4646 28.9555 23.9104 28.979C24.6144 29.0025 25.0368 29.3779 25.0602 29.9645C25.0602 30.5511 24.6378 30.9501 23.9339 30.9735C23.4646 30.997 22.9953 30.9735 22.5495 30.9735C22.5964 33.32 24.8725 36.9102 28.9789 37.4499C28.9789 36.9102 28.9554 36.3705 28.9789 35.8308C29.0023 35.3615 29.2605 35.0095 29.7298 34.8922C30.1756 34.7748 30.5745 34.9156 30.7857 35.338C30.903 35.5727 30.9499 35.8542 30.9499 36.1123C30.9734 36.5347 30.9499 36.9571 30.9499 37.4499C32.7567 37.1917 34.235 36.4174 35.4552 35.1737C35.596 35.033 35.7133 34.8687 35.8541 34.7514C36.2765 34.3525 36.8162 34.3055 37.2386 34.6575C37.6609 35.0095 37.7313 35.5961 37.3559 36.0654C36.5346 37.0979 35.5256 37.9661 34.3289 38.5058C33.2964 38.9751 32.1701 39.2801 30.9734 39.7025C30.9734 40.0545 30.9734 40.5472 30.9734 41.0635C30.9499 41.8143 30.5745 42.2602 29.9644 42.2367C29.3543 42.2367 28.9789 41.7909 28.9789 41.04C29.0023 40.5472 29.0023 40.0779 29.0023 39.5852Z" fill="#77B900"/>
<path d="M32.0061 30.0116C32.0061 31.1144 31.091 32.0061 29.9881 32.0061C28.8853 32.0061 27.9936 31.091 28.0171 29.9881C28.0405 28.9087 28.9087 28.0405 30.0116 28.0171C31.1144 27.9936 32.0061 28.8853 32.0061 30.0116Z" fill="#77B900"/>
</svg>
