<svg width="60" height="60" viewBox="0 0 60 60" fill="none" xmlns="http://www.w3.org/2000/svg">
<path d="M30.56 38.0309C30.4192 38.0309 30.3019 38.0309 30.1846 38.0309C25.6793 38.0309 21.1858 38.0309 16.6805 38.0309C16.1056 38.0309 16 37.9253 16 37.3504C16 30.1232 16 22.896 16 15.6688C16 15.1173 16.1173 15 16.6688 15C17.3258 15 17.9828 15 18.6281 15C19.0035 15 19.1912 15.1525 19.1795 15.4458C19.1678 15.7274 18.9918 15.8682 18.6281 15.8682C18.0532 15.8682 17.4783 15.8682 16.8917 15.8682C16.8917 16.314 16.8917 16.7481 16.8917 17.194C21.4321 17.194 25.9726 17.194 30.5366 17.194C30.5366 16.7716 30.5366 16.3375 30.5366 15.8682C30.431 15.8682 30.3136 15.8682 30.2081 15.8682C27.2397 15.8682 24.2714 15.8682 21.3031 15.8682C21.1975 15.8682 21.0802 15.8799 20.9863 15.8565C20.7399 15.8095 20.6109 15.657 20.6226 15.4106C20.6343 15.176 20.7634 15.0352 20.998 15C21.0802 15 21.1623 15 21.2562 15C24.4357 15 27.6152 15 30.8064 15C31.3226 15 31.44 15.1291 31.44 15.6453C31.44 17.6163 31.44 19.5874 31.44 21.5585C31.44 21.6875 31.44 21.8048 31.44 21.9691C31.5808 21.9691 31.6864 21.9691 31.8037 21.9691C36.2972 21.9691 40.7908 21.9691 45.2843 21.9691C45.9061 21.9691 46 22.063 46 22.6731C46 29.8768 46 37.0806 46 44.2843C46 44.8827 45.8944 44.9883 45.3078 44.9883C40.6148 44.9883 35.9335 44.9883 31.2405 44.9883C30.6539 44.9883 30.5483 44.8827 30.5483 44.2843C30.5483 42.325 30.5483 40.3539 30.5483 38.3946C30.56 38.289 30.56 38.1717 30.56 38.0309ZM31.4634 30.8506C31.4634 34.077 31.4634 37.2683 31.4634 40.483C31.5925 40.483 31.7098 40.483 31.8271 40.483C34.8424 40.483 37.8576 40.483 40.8846 40.483C40.9785 40.483 41.0841 40.483 41.1779 40.483C41.4243 40.5065 41.5768 40.6472 41.5768 40.9054C41.5886 41.1635 41.4478 41.3043 41.2014 41.3512C41.0958 41.3747 40.9902 41.3629 40.8846 41.3629C37.8694 41.3629 34.8541 41.3629 31.8271 41.3629C31.7098 41.3629 31.5925 41.3629 31.4752 41.3629C31.4752 42.2898 31.4752 43.1932 31.4752 44.1083C36.0274 44.1083 40.5679 44.1083 45.1201 44.1083C45.1201 43.1932 45.1201 42.2898 45.1201 41.3981C45.0849 41.3864 45.0614 41.3747 45.0497 41.3747C44.5686 41.3747 44.0876 41.3747 43.6183 41.3747C43.2663 41.3747 43.0786 41.2221 43.0669 40.9406C43.0551 40.6472 43.2429 40.4947 43.6183 40.4947C44.1111 40.4947 44.6038 40.4947 45.1201 40.4947C45.1201 37.2683 45.1201 34.077 45.1201 30.8623C40.5561 30.8506 36.0274 30.8506 31.4634 30.8506ZM16.9034 23.8815C16.9034 27.0962 16.9034 30.2992 16.9034 33.5022C21.4673 33.5022 25.9961 33.5022 30.5366 33.5022C30.5366 30.2874 30.5366 27.0962 30.5366 23.8815C25.9844 23.8815 21.4439 23.8815 16.9034 23.8815ZM16.8917 22.9546C21.4673 22.9546 26.0078 22.9546 30.5483 22.9546C30.5483 21.3355 30.5483 19.7399 30.5483 18.1326C25.9844 18.1326 21.4439 18.1326 16.8917 18.1326C16.8917 19.7517 16.8917 21.3473 16.8917 22.9546ZM45.1083 25.1017C40.5444 25.1017 36.0039 25.1017 31.4517 25.1017C31.4517 26.7208 31.4517 28.3164 31.4517 29.9237C36.0156 29.9237 40.5561 29.9237 45.1083 29.9237C45.1083 28.3164 45.1083 26.7208 45.1083 25.1017ZM30.5483 34.4173C25.9844 34.4173 21.4439 34.4173 16.9034 34.4173C16.9034 35.3324 16.9034 36.2241 16.9034 37.1275C21.4673 37.1275 26.0078 37.1275 30.5483 37.1275C30.5483 36.2124 30.5483 35.3207 30.5483 34.4173ZM45.1083 22.8725C40.5561 22.8725 36.0156 22.8725 31.4634 22.8725C31.4634 23.3183 31.4634 23.7524 31.4634 24.1983C36.0156 24.1983 40.5561 24.1983 45.1083 24.1983C45.1083 23.7524 45.1083 23.3183 45.1083 22.8725Z" fill="black"/>
<path d="M37.8459 19.4466C37.8459 18.4259 37.8459 17.4052 37.8459 16.3844C37.8459 16.0911 37.8459 15.7978 37.8459 15.5045C37.8459 15.1994 38.0102 15.0117 38.2683 15.0117C38.5381 15 38.7259 15.1994 38.7259 15.5045C38.7376 16.4196 38.7259 17.3348 38.7259 18.2499C38.7259 18.6488 38.7259 19.0477 38.7259 19.517C38.937 19.3175 39.0896 19.165 39.2538 19.0125C39.4885 18.7896 39.7348 18.7779 39.9226 18.9656C40.1103 19.1533 40.0986 19.4114 39.8639 19.6343C39.465 20.0332 39.0544 20.4204 38.6437 20.8076C38.3856 21.054 38.1627 21.0422 37.9046 20.7958C37.5057 20.4204 37.1185 20.045 36.7196 19.6578C36.4615 19.4114 36.438 19.1768 36.6257 18.9656C36.8135 18.7661 37.0833 18.7779 37.3414 19.036C37.4822 19.1768 37.5995 19.3527 37.7169 19.517C37.7638 19.5053 37.8107 19.4701 37.8459 19.4466Z" fill="black"/>
<path d="M24.1541 40.5415C24.1541 41.8086 24.1541 43.0522 24.1541 44.3076C24.1541 44.4132 24.1658 44.5188 24.1424 44.6244C24.1072 44.8473 23.9546 44.9998 23.7434 44.9764C23.5909 44.9529 23.4267 44.8238 23.3211 44.6948C23.2624 44.6244 23.2741 44.4719 23.2741 44.3545C23.2741 43.0874 23.2741 41.8203 23.2741 40.4711C23.0747 40.6588 22.9222 40.7996 22.7696 40.9404C22.5233 41.175 22.2652 41.1985 22.0774 41.0108C21.8897 40.8231 21.9132 40.5532 22.1478 40.3186C22.535 39.9314 22.9339 39.5559 23.3328 39.1805C23.6144 38.9224 23.8256 38.9107 24.0954 39.1688C24.4943 39.5442 24.8815 39.9197 25.2804 40.3068C25.5268 40.5532 25.562 40.7996 25.3625 40.999C25.1748 41.1985 24.9167 41.175 24.6703 40.9404C24.5178 40.7996 24.3653 40.6588 24.2245 40.5297C24.2127 40.5415 24.201 40.5415 24.1541 40.5415Z" fill="black"/>
<circle cx="30" cy="30" r="29.5" stroke="black"/>
<circle cx="30" cy="30" r="29.5" stroke="black"/>
</svg>
