<svg width="60" height="60" viewBox="0 0 60 60" fill="none" xmlns="http://www.w3.org/2000/svg">
<circle cx="30" cy="30" r="29.5" stroke="black"/>
<circle cx="30" cy="30" r="29.5" stroke="black"/>
<g clip-path="url(#clip0_228_6)">
<path d="M15.0012 33.3349C15.1639 33.3349 15.3015 33.3349 15.4267 33.3349C18.9308 33.3349 22.4474 33.3349 25.9515 33.3349C26.1017 33.3349 26.2519 33.3349 26.3895 33.3731C26.6273 33.437 26.7524 33.6156 26.7524 33.8709C26.7399 34.1261 26.6023 34.292 26.3645 34.343C26.2268 34.3686 26.0892 34.3686 25.964 34.3686C22.4599 34.3686 18.9433 34.3686 15.4392 34.3686C15.3015 34.3686 15.1764 34.3686 15.0262 34.3686C15.0262 34.9556 15.0137 35.5043 15.0262 36.0658C15.0387 36.3594 15.2139 36.5508 15.5143 36.6018C15.6394 36.6146 15.7646 36.6274 15.8897 36.6274C19.2687 36.6274 22.6351 36.6274 26.0141 36.6274C26.5272 36.6274 26.765 36.7805 26.7775 37.1251C26.7775 37.4824 26.5397 37.6483 26.0016 37.6483C25.9014 37.6483 25.8013 37.6483 25.6637 37.6483C25.526 38.7586 25.3883 39.8433 25.2507 40.9791C25.5636 40.9791 25.8514 40.9791 26.1517 40.9791C26.5522 40.9791 26.7775 41.1705 26.79 41.4895C26.79 41.8086 26.5647 42 26.1768 42C25.3633 42 24.5499 42 23.7364 42C23.361 42 23.1357 41.8086 23.1357 41.5023C23.1232 41.1833 23.361 40.9791 23.7489 40.9791C23.8991 40.9791 24.0618 40.9791 24.2495 40.9791C24.3872 39.8688 24.5248 38.7841 24.6625 37.6483C24.5248 37.6483 24.3997 37.6483 24.2745 37.6483C21.4462 37.6483 18.6054 37.6483 15.7771 37.6483C14.876 37.6483 14.2503 37.1761 14.0751 36.3721C14 36.1935 14 36.0148 14 35.8489C14 30.1572 14 24.4655 14 18.7739C14 17.6508 14.6382 17 15.7521 17C24.1869 17 32.6218 17 41.0567 17C42.158 17 42.7962 17.6508 42.7962 18.7866C42.7962 22.2833 42.7962 25.7672 42.7962 29.2639C42.7962 29.366 42.7962 29.4809 42.7712 29.583C42.7086 29.8637 42.5334 30.0168 42.2581 29.9913C41.9828 29.9786 41.8201 29.7999 41.7951 29.5191C41.7826 29.4043 41.7826 29.2894 41.7826 29.1746C41.7826 25.7545 41.7826 22.3344 41.7826 18.9142C41.7826 18.1741 41.6324 18.0209 40.894 18.0209C32.5592 18.0209 24.212 18.0209 15.8522 18.0209C15.1639 18.0209 15.0012 18.1868 15.0012 18.876C15.0012 23.5722 15.0012 28.2685 15.0012 32.952C15.0012 33.0669 15.0012 33.1817 15.0012 33.3349Z" fill="black"/>
<path d="M38.5162 34.4068C38.5162 36.3338 38.4912 38.2481 38.5287 40.1751C38.5538 41.3364 37.7528 42.0255 36.7266 42.0127C34.3739 41.9744 32.0211 42 29.6684 42C28.5295 42 27.8913 41.3619 27.8913 40.1878C27.8913 36.3338 27.8913 32.4798 27.8913 28.6258C27.8913 27.4517 28.517 26.8264 29.6684 26.8264C32.0211 26.8264 34.3739 26.8519 36.7266 26.8136C37.7654 26.8009 38.5413 27.5155 38.5162 28.6513C38.4912 30.5528 38.5162 32.4798 38.5162 34.4068ZM37.49 30.0296C34.6117 30.0296 31.7708 30.0296 28.905 30.0296C28.905 32.952 28.905 35.8616 28.905 38.7713C31.7708 38.7713 34.6242 38.7713 37.49 38.7713C37.49 35.8489 37.49 32.952 37.49 30.0296ZM28.905 28.9576C31.7959 28.9576 34.6367 28.9576 37.5151 28.9576C37.5151 28.7789 37.5151 28.6258 37.5151 28.4599C37.5025 28.0388 37.3023 27.8218 36.9018 27.8218C34.449 27.8218 31.9836 27.8218 29.5307 27.8218C29.1553 27.8218 28.955 28.0132 28.9175 28.3961C28.8925 28.5875 28.905 28.7662 28.905 28.9576ZM37.5151 39.8305C34.6242 39.8305 31.7708 39.8305 28.905 39.8305C28.905 40.0347 28.8925 40.2133 28.905 40.3792C28.9425 40.7621 29.1427 40.9535 29.5182 40.9535C31.9711 40.9535 34.4365 40.9535 36.8893 40.9535C37.2898 40.9535 37.49 40.7366 37.5025 40.3154C37.5151 40.1623 37.5151 40.0092 37.5151 39.8305Z" fill="black"/>
<path d="M46 36.5891C46 37.8014 46 39.0138 46 40.2134C46 41.3236 45.3617 41.9745 44.2855 41.9873C43.3093 41.9873 42.3332 41.9873 41.3445 41.9873C40.3183 41.9873 39.6676 41.3619 39.6551 40.3155C39.6425 37.827 39.6425 35.3257 39.6551 32.8372C39.6676 31.8035 40.3309 31.1654 41.3445 31.1526C42.3332 31.1526 43.3219 31.1399 44.3105 31.1526C45.3492 31.1654 46 31.829 46 32.8882C46.0125 34.1261 46 35.364 46 36.5891ZM40.6813 38.7713C42.133 38.7713 43.5471 38.7713 44.9863 38.7713C44.9863 37.3037 44.9863 35.8489 44.9863 34.3813C43.5471 34.3813 42.1205 34.3813 40.6813 34.3813C40.6813 35.8489 40.6813 37.291 40.6813 38.7713ZM40.6562 39.8305C40.6562 39.9837 40.6562 40.1113 40.6562 40.2389C40.6687 40.7621 40.8565 40.9663 41.3821 40.9663C42.3582 40.9663 43.3344 40.9663 44.323 40.9663C44.7861 40.9663 44.9863 40.7494 44.9988 40.2772C44.9988 40.1368 44.9988 39.9837 44.9988 39.8305C43.5471 39.8305 42.1205 39.8305 40.6562 39.8305ZM44.9988 33.3221C44.9988 33.1307 44.9988 32.9903 44.9988 32.8372C44.9863 32.4288 44.7861 32.1863 44.3856 32.1863C43.3469 32.1736 42.3082 32.1736 41.2695 32.1863C40.8815 32.1863 40.6938 32.416 40.6688 32.8117C40.6562 32.9776 40.6688 33.1435 40.6688 33.3221C42.1205 33.3221 43.5471 33.3221 44.9988 33.3221Z" fill="black"/>
</g>
<defs>
<clipPath id="clip0_228_6">
<rect width="32" height="25" fill="white" transform="translate(14 17)"/>
</clipPath>
</defs>
</svg>
