<svg width="60" height="60" viewBox="0 0 60 60" fill="none" xmlns="http://www.w3.org/2000/svg">
<path d="M17.4042 44.9859C16.2502 44.9859 15.1102 44.9859 13.9562 44.9859C12.7459 44.9859 12 44.2398 12 43.043C12 41.7337 11.9578 40.4103 12.0704 39.115C12.183 37.693 13.5903 36.5526 15.0258 36.6089C15.2088 36.623 15.4058 36.7216 15.5887 36.792C16.7568 37.2566 17.9531 37.3129 19.1071 36.8201C20.0641 36.4118 20.8522 36.6793 21.5981 37.2143C22.4566 37.8197 22.7944 38.7067 22.8084 39.7345C22.8225 40.8326 22.8225 41.9308 22.8084 43.043C22.7944 44.2679 22.0485 44.9859 20.81 44.9859C19.6701 45 18.5442 44.9859 17.4042 44.9859ZM17.4183 43.7892C18.5723 43.7892 19.7123 43.7892 20.8663 43.7892C21.373 43.7892 21.5981 43.578 21.5981 43.0571C21.6122 41.9167 21.5981 40.7904 21.5981 39.65C21.5981 39.0587 21.387 38.5378 20.9085 38.1858C20.5426 37.9183 20.1626 37.693 19.6841 37.8901C18.1642 38.4955 16.6583 38.4955 15.1384 37.9042C14.9554 37.8338 14.7021 37.8338 14.5051 37.8901C13.717 38.1013 13.2244 38.7912 13.2244 39.65C13.2103 40.7622 13.2244 41.8745 13.2244 42.9867C13.2244 43.578 13.4355 43.7892 14.0266 43.7892C15.1384 43.7892 16.2783 43.7892 17.4183 43.7892Z" fill="black"/>
<path d="M42.5958 44.9859C41.4418 44.9859 40.2737 44.9859 39.1196 44.9859C37.9797 44.9859 37.2197 44.2819 37.1916 43.1556C37.1634 41.8322 37.1634 40.5087 37.2338 39.1853C37.3042 37.7633 38.81 36.4962 40.2314 36.5948C40.344 36.6089 40.4566 36.6511 40.5692 36.6933C41.9062 37.2846 43.2432 37.2846 44.5801 36.7074C45.1712 36.454 45.7342 36.637 46.269 36.9045C47.3948 37.4536 47.9578 38.3969 47.9859 39.6358C48.0141 40.8044 48 41.973 47.9859 43.1415C47.9719 44.2397 47.2119 44.9859 46.1142 44.9859C44.932 44.9999 43.7639 44.9859 42.5958 44.9859ZM42.5817 43.7891C43.7357 43.7891 44.8757 43.7891 46.0297 43.7891C46.5645 43.7891 46.7897 43.5639 46.7897 43.043C46.7897 41.9026 46.7897 40.7762 46.7897 39.6358C46.7897 39.1572 46.6349 38.7348 46.3253 38.3828C45.9875 38.0027 45.2838 37.707 44.8475 37.876C43.3417 38.5095 41.8217 38.4814 40.3018 37.89C40.1189 37.8196 39.8796 37.8196 39.6966 37.8619C38.8663 38.0871 38.4019 38.7629 38.3878 39.7203C38.3737 40.8044 38.3878 41.9026 38.3878 42.9866C38.3878 43.578 38.5989 43.7751 39.2041 43.7751C40.33 43.7891 41.4558 43.7891 42.5817 43.7891Z" fill="black"/>
<path d="M29.9859 25.1911C28.86 25.1911 27.7342 25.1911 26.6083 25.1911C25.3135 25.1911 24.5817 24.459 24.5817 23.1637C24.5817 21.8825 24.5676 20.6154 24.6521 19.3342C24.7506 17.9263 26.2283 16.7014 27.6216 16.8C27.8045 16.8141 27.9734 16.9126 28.1423 16.983C29.3385 17.4617 30.5489 17.518 31.731 16.9971C32.4488 16.6874 33.0821 16.8 33.7154 17.1238C34.8413 17.687 35.362 18.6443 35.3901 19.8833C35.4183 21.0237 35.4042 22.15 35.3901 23.2904C35.3761 24.4308 34.6443 25.1629 33.4902 25.1911C33.4621 25.1911 33.448 25.1911 33.4199 25.1911C32.2799 25.1911 31.14 25.1911 29.9859 25.1911ZM29.9578 23.9944C31.1118 23.9944 32.2799 23.9944 33.4339 23.9944C33.9687 23.9944 34.1939 23.7832 34.1939 23.2482C34.1939 22.1219 34.1939 20.9955 34.1939 19.8692C34.1939 19.2779 33.9969 18.757 33.5043 18.3909C33.1525 18.1234 32.7584 17.8841 32.2799 18.0812C30.76 18.7007 29.226 18.7007 27.6919 18.0812C27.5371 18.0249 27.3542 18.0108 27.1853 18.0389C26.3268 18.2079 25.792 18.9259 25.778 19.8833C25.7639 20.9674 25.778 22.0655 25.778 23.1496C25.778 23.7691 25.975 23.9662 26.6083 23.9662C27.7342 23.9944 28.846 23.9944 29.9578 23.9944Z" fill="black"/>
<path d="M23.2025 15.7017C22.1751 16.293 21.2744 17.0251 20.4722 17.8699C18.2064 20.2774 16.982 23.1213 16.8272 26.4299C16.8131 26.6129 16.8131 26.81 16.7991 26.9931C16.7568 27.3732 16.5317 27.5985 16.1939 27.5844C15.8702 27.5703 15.6169 27.331 15.6169 26.9508C15.6169 26.4721 15.645 25.9934 15.7013 25.5148C16.1095 21.6994 17.7701 18.5316 20.6833 16.0396C21.3729 15.4483 22.1751 14.9837 22.921 14.4627C22.9914 14.4205 23.0618 14.3783 23.1603 14.3079C22.7381 14.1108 22.344 13.9418 21.9781 13.7588C21.6685 13.6039 21.5559 13.2801 21.6685 12.9845C21.7952 12.6747 22.1188 12.548 22.4566 12.6606C22.4988 12.6747 22.541 12.7029 22.5833 12.717C23.301 13.0408 24.0047 13.3646 24.7224 13.6884C25.1869 13.9137 25.2995 14.1812 25.0743 14.6458C24.7084 15.4201 24.3425 16.1945 23.9625 16.9547C23.7795 17.3349 23.4558 17.4616 23.1321 17.3208C22.8225 17.1659 22.724 16.828 22.8929 16.4479C22.9914 16.2085 23.104 15.9833 23.2166 15.7439C23.2166 15.7439 23.2166 15.7299 23.2025 15.7017Z" fill="black"/>
<path d="M42.9898 25.3739C42.835 23.5577 42.2862 21.9104 41.3995 20.3758C39.9781 17.9401 37.9656 16.1239 35.4042 14.9554C34.8554 14.702 34.6865 14.3922 34.8694 14.0262C35.0524 13.6742 35.3761 13.6179 35.9109 13.8572C40.1048 15.8283 42.7928 19.0805 43.975 23.5577C44.0594 23.8815 44.1298 24.2194 44.1861 24.5573C44.2424 24.8811 44.2705 25.2049 44.3268 25.5991C44.6083 25.3175 44.8475 25.0782 45.0868 24.8529C45.4105 24.5432 45.7623 24.515 46.0156 24.7685C46.269 25.0219 46.2408 25.3879 45.9312 25.6977C45.3823 26.2467 44.8475 26.7958 44.2846 27.3308C43.9609 27.6546 43.6231 27.6546 43.2995 27.3308C42.7365 26.7818 42.1877 26.2327 41.6388 25.6695C41.3432 25.3739 41.3292 25.0078 41.5966 24.7685C41.8499 24.515 42.1877 24.5432 42.4973 24.8388C42.6661 25.0219 42.821 25.2049 42.9898 25.3739Z" fill="black"/>
<path d="M29.9859 16.1944C28.0016 16.1803 26.3972 14.5753 26.4113 12.5901C26.4113 10.6191 28.0438 9 30.0141 9C31.9844 9 33.6028 10.6332 33.5887 12.6042C33.5747 14.5894 31.9562 16.1944 29.9859 16.1944ZM30 14.9836C31.3229 14.9836 32.3925 13.9136 32.3925 12.5901C32.3925 11.2808 31.3088 10.1967 30 10.1967C28.6912 10.1967 27.6075 11.2808 27.6075 12.5901C27.6075 13.9136 28.6771 14.9836 30 14.9836Z" fill="black"/>
<path d="M17.4042 28.7949C19.3745 28.7949 20.993 30.414 20.993 32.3851C20.993 34.342 19.3604 35.9752 17.3901 35.9752C15.4199 35.9752 13.8014 34.342 13.8014 32.371C13.8155 30.414 15.4199 28.7949 17.4042 28.7949ZM15.0117 32.3991C15.0117 33.7226 16.0954 34.7926 17.4042 34.7926C18.7131 34.7926 19.7967 33.6944 19.7967 32.3851C19.7967 31.0757 18.7131 30.0057 17.3901 30.0057C16.0672 30.0057 15.0117 31.0757 15.0117 32.3991Z" fill="black"/>
<path d="M46.1845 32.3991C46.1845 34.3702 44.5661 35.9893 42.5817 35.9893C40.6114 35.9893 38.993 34.3561 38.993 32.3851C38.993 30.414 40.6255 28.7949 42.5958 28.7949C44.5661 28.809 46.1845 30.4281 46.1845 32.3991ZM44.9742 32.371C44.9601 31.0476 43.8905 29.9916 42.5676 30.0057C41.2447 30.0198 40.1751 31.1039 40.1892 32.4132C40.2033 33.7226 41.301 34.8067 42.6099 34.7926C43.9187 34.7785 44.9883 33.6944 44.9742 32.371Z" fill="black"/>
<path d="M26.7631 39.692C29.3385 40.3819 31.8859 40.2833 34.3909 39.4245C34.6724 39.326 34.9398 39.2133 35.2213 39.1289C35.545 39.0303 35.8546 39.1993 35.9531 39.4949C36.0516 39.7906 35.9249 40.1144 35.6013 40.2411C35.165 40.4241 34.7146 40.5931 34.2502 40.7339C31.5903 41.5364 28.9163 41.5927 26.2283 40.8747C26.1439 40.8465 26.0453 40.8465 25.8905 40.8043C25.9891 41.0014 26.0594 41.1562 26.1298 41.297C26.2002 41.4519 26.2987 41.6068 26.355 41.7757C26.4676 42.0855 26.369 42.3248 26.0876 42.4937C25.8202 42.6627 25.4824 42.5923 25.3276 42.3107C24.8913 41.5223 24.4691 40.7339 24.0751 39.9173C23.9062 39.5653 24.0751 39.2274 24.455 39.1148C25.2432 38.8614 26.0454 38.6361 26.8475 38.4108C27.1712 38.3264 27.4668 38.4953 27.5653 38.805C27.6638 39.1007 27.5231 39.4104 27.1994 39.5372C27.0446 39.6075 26.9038 39.6498 26.7631 39.692Z" fill="black"/>
<circle cx="30" cy="30" r="29.5" stroke="black"/>
<circle cx="30" cy="30" r="29.5" stroke="black"/>
</svg>
