<svg width="100" height="100" viewBox="0 0 100 100" fill="none" xmlns="http://www.w3.org/2000/svg">
<circle cx="50" cy="50" r="50" fill="#77B900"/>
<circle cx="50" cy="50" r="44.5" stroke="white" stroke-linecap="round" stroke-dasharray="8 8"/>
<path d="M37.3042 55.96C34.2509 55.96 31.9909 55.2333 30.5242 53.78C29.0709 52.3133 28.3442 50.0533 28.3442 47V37.76C28.3442 34.68 29.0709 32.4133 30.5242 30.96C31.9909 29.5067 34.2509 28.8 37.3042 28.84H39.7042C42.7709 28.84 45.0309 29.5667 46.4842 31.02C47.9376 32.46 48.6642 34.72 48.6642 37.8V47C48.6642 50.0533 47.9376 52.3133 46.4842 53.78C45.0309 55.2333 42.7709 55.96 39.7042 55.96H37.3042ZM37.3042 52.6H39.7042C41.1309 52.6 42.2509 52.4267 43.0642 52.08C43.8776 51.7333 44.4509 51.1533 44.7842 50.34C45.1309 49.5267 45.3042 48.4133 45.3042 47V37.8C45.3042 36.3733 45.1309 35.2533 44.7842 34.44C44.4509 33.6267 43.8776 33.0533 43.0642 32.72C42.2509 32.3733 41.1309 32.2 39.7042 32.2H37.3042C35.8909 32.1733 34.7776 32.3267 33.9642 32.66C33.1509 32.98 32.5709 33.5533 32.2242 34.38C31.8776 35.1933 31.7042 36.32 31.7042 37.76V47C31.7042 48.4133 31.8709 49.5267 32.2042 50.34C32.5509 51.1533 33.1309 51.7333 33.9442 52.08C34.7576 52.4267 35.8776 52.6 37.3042 52.6ZM38.0242 44.36C36.9576 44.36 36.4242 43.8267 36.4242 42.76V41.76C36.4242 40.72 36.9576 40.2 38.0242 40.2H38.9842C39.9976 40.2 40.5042 40.72 40.5042 41.76V42.76C40.5042 43.8267 39.9976 44.36 38.9842 44.36H38.0242ZM71.008 56H56.048C54.9013 56 54.328 55.44 54.328 54.32C54.328 52.5333 54.608 51.0133 55.168 49.76C55.7413 48.4933 56.468 47.4267 57.348 46.56C58.2413 45.68 59.188 44.94 60.188 44.34C61.188 43.7267 62.1146 43.1733 62.968 42.68C64.448 41.84 65.6813 41.1133 66.668 40.5C67.668 39.8867 68.4146 39.26 68.908 38.62C69.4013 37.98 69.648 37.2 69.648 36.28C69.648 34.6933 69.3613 33.6267 68.788 33.08C68.228 32.52 67.168 32.24 65.608 32.24H61.328C60.0746 32.24 59.148 32.4067 58.548 32.74C57.948 33.0733 57.568 33.6933 57.408 34.6C57.3146 35.1333 57.1346 35.54 56.868 35.82C56.6013 36.1 56.1946 36.24 55.648 36.24C55.088 36.24 54.6613 36.0933 54.368 35.8C54.0746 35.4933 53.9546 35.0533 54.008 34.48C54.288 32.6 55.028 31.2 56.228 30.28C57.428 29.3467 59.128 28.88 61.328 28.88H65.608C68.1146 28.88 69.9746 29.4867 71.188 30.7C72.4013 31.9133 73.008 33.7733 73.008 36.28C73.008 37.88 72.6146 39.22 71.828 40.3C71.0413 41.3667 70.008 42.3133 68.728 43.14C67.448 43.9533 66.0746 44.7733 64.608 45.6C63.5413 46.2133 62.528 46.8267 61.568 47.44C60.6213 48.0533 59.808 48.7667 59.128 49.58C58.4613 50.3933 58.0213 51.4133 57.808 52.64H71.008C72.128 52.64 72.688 53.2 72.688 54.32C72.688 55.44 72.128 56 71.008 56ZM35.5576 74C34.7026 74 34.0351 73.8275 33.5551 73.4825C33.0801 73.1375 32.7826 72.605 32.6626 71.885C32.6426 71.665 32.6876 71.5 32.7976 71.39C32.9076 71.28 33.0676 71.225 33.2776 71.225C33.4876 71.225 33.6401 71.275 33.7351 71.375C33.8351 71.475 33.9026 71.63 33.9376 71.84C34.0126 72.185 34.1726 72.4225 34.4176 72.5525C34.6676 72.6775 35.0476 72.74 35.5576 72.74H37.7176C38.3626 72.74 38.8001 72.625 39.0301 72.395C39.2651 72.16 39.3826 71.725 39.3826 71.09C39.3826 70.445 39.2626 70.005 39.0226 69.77C38.7826 69.53 38.3476 69.41 37.7176 69.41H35.8576C34.9126 69.41 34.2101 69.18 33.7501 68.72C33.2951 68.255 33.0676 67.55 33.0676 66.605C33.0676 65.665 33.2926 64.9675 33.7426 64.5125C34.1976 64.0575 34.8976 63.83 35.8426 63.83H37.6276C38.4226 63.83 39.0451 63.9925 39.4951 64.3175C39.9501 64.6425 40.2376 65.14 40.3576 65.81C40.3876 66.025 40.3476 66.19 40.2376 66.305C40.1276 66.415 39.9626 66.47 39.7426 66.47C39.5426 66.47 39.3926 66.4175 39.2926 66.3125C39.1926 66.2075 39.1276 66.055 39.0976 65.855C39.0176 65.56 38.8651 65.36 38.6401 65.255C38.4151 65.145 38.0776 65.09 37.6276 65.09H35.8426C35.2426 65.09 34.8401 65.1975 34.6351 65.4125C34.4301 65.6225 34.3276 66.02 34.3276 66.605C34.3276 67.195 34.4326 67.6 34.6426 67.82C34.8526 68.04 35.2576 68.15 35.8576 68.15H37.7176C38.7026 68.15 39.4351 68.39 39.9151 68.87C40.4001 69.35 40.6426 70.09 40.6426 71.09C40.6426 72.085 40.4026 72.82 39.9226 73.295C39.4426 73.765 38.7076 74 37.7176 74H35.5576ZM45.6988 74C45.4888 74 45.3313 73.9475 45.2262 73.8425C45.1213 73.7375 45.0688 73.58 45.0688 73.37V65.105H42.1588C41.9488 65.105 41.7913 65.0525 41.6863 64.9475C41.5813 64.8425 41.5288 64.685 41.5288 64.475C41.5288 64.265 41.5813 64.1075 41.6863 64.0025C41.7913 63.8975 41.9488 63.845 42.1588 63.845H49.2388C49.4488 63.845 49.6063 63.8975 49.7113 64.0025C49.8163 64.1075 49.8688 64.265 49.8688 64.475C49.8688 64.685 49.8163 64.8425 49.7113 64.9475C49.6063 65.0525 49.4488 65.105 49.2388 65.105H46.3288V73.37C46.3288 73.57 46.2738 73.725 46.1638 73.835C46.0588 73.945 45.9038 74 45.6988 74ZM52.4976 74C52.0776 74 51.8676 73.79 51.8676 73.37V64.46C51.8676 64.04 52.0776 63.83 52.4976 63.83H57.8826C58.3026 63.83 58.5126 64.04 58.5126 64.46C58.5126 64.88 58.3026 65.09 57.8826 65.09H53.1276V68.24H56.1126C56.5326 68.24 56.7426 68.45 56.7426 68.87C56.7426 69.29 56.5326 69.5 56.1126 69.5H53.1276V72.74H57.8826C58.3026 72.74 58.5126 72.95 58.5126 73.37C58.5126 73.79 58.3026 74 57.8826 74H52.4976ZM61.5357 74C61.1157 74 60.9057 73.79 60.9057 73.37V64.46C60.9057 64.04 61.1157 63.83 61.5357 63.83H65.0457C65.9607 63.83 66.6607 64.075 67.1457 64.565C67.6357 65.05 67.8807 65.75 67.8807 66.665V67.115C67.8807 68.03 67.6357 68.7325 67.1457 69.2225C66.6607 69.7075 65.9607 69.95 65.0457 69.95H62.1657V73.37C62.1657 73.79 61.9557 74 61.5357 74ZM62.1657 68.69H65.0457C65.6157 68.69 66.0207 68.57 66.2607 68.33C66.5007 68.09 66.6207 67.685 66.6207 67.115V66.665C66.6207 66.1 66.5007 65.6975 66.2607 65.4575C66.0207 65.2125 65.6157 65.09 65.0457 65.09H62.1657V68.69Z" fill="white"/>
</svg>
