<svg width="100" height="100" viewBox="0 0 100 100" fill="none" xmlns="http://www.w3.org/2000/svg">
<circle cx="50" cy="50" r="50" fill="#77B900"/>
<circle cx="50" cy="50" r="44.5" stroke="white" stroke-linecap="round" stroke-dasharray="8 8"/>
<path d="M36.3472 55.96C33.2939 55.96 31.0339 55.2333 29.5672 53.78C28.1139 52.3133 27.3872 50.0533 27.3872 47V37.76C27.3872 34.68 28.1139 32.4133 29.5672 30.96C31.0339 29.5067 33.2939 28.8 36.3472 28.84H38.7472C41.8139 28.84 44.0739 29.5667 45.5272 31.02C46.9805 32.46 47.7072 34.72 47.7072 37.8V47C47.7072 50.0533 46.9805 52.3133 45.5272 53.78C44.0739 55.2333 41.8139 55.96 38.7472 55.96H36.3472ZM36.3472 52.6H38.7472C40.1739 52.6 41.2939 52.4267 42.1072 52.08C42.9205 51.7333 43.4939 51.1533 43.8272 50.34C44.1739 49.5267 44.3472 48.4133 44.3472 47V37.8C44.3472 36.3733 44.1739 35.2533 43.8272 34.44C43.4939 33.6267 42.9205 33.0533 42.1072 32.72C41.2939 32.3733 40.1739 32.2 38.7472 32.2H36.3472C34.9339 32.1733 33.8205 32.3267 33.0072 32.66C32.1939 32.98 31.6139 33.5533 31.2672 34.38C30.9205 35.1933 30.7472 36.32 30.7472 37.76V47C30.7472 48.4133 30.9139 49.5267 31.2472 50.34C31.5939 51.1533 32.1739 51.7333 32.9872 52.08C33.8005 52.4267 34.9205 52.6 36.3472 52.6ZM37.0672 44.36C36.0005 44.36 35.4672 43.8267 35.4672 42.76V41.76C35.4672 40.72 36.0005 40.2 37.0672 40.2H38.0272C39.0405 40.2 39.5472 40.72 39.5472 41.76V42.76C39.5472 43.8267 39.0405 44.36 38.0272 44.36H37.0672ZM68.6909 56C67.5709 56 67.0109 55.44 67.0109 54.32L67.0509 32.8L68.3709 31.84L56.5309 47.88L56.2509 47.04L72.6909 46.96C73.2376 46.96 73.6509 47.12 73.9309 47.44C74.2243 47.76 74.3709 48.16 74.3709 48.64C74.3709 49.76 73.8109 50.32 72.6909 50.32H54.6509C53.5309 50.32 52.9709 49.76 52.9709 48.64C52.9709 48.1067 53.1976 47.52 53.6509 46.88L66.2109 29.92C66.5576 29.4533 66.9109 29.1667 67.2709 29.06C67.6443 28.94 68.0776 28.88 68.5709 28.88C69.7976 28.88 70.4109 29.44 70.4109 30.56L70.3709 54.32C70.3709 55.44 69.8109 56 68.6909 56ZM35.5576 74C34.7026 74 34.0351 73.8275 33.5551 73.4825C33.0801 73.1375 32.7826 72.605 32.6626 71.885C32.6426 71.665 32.6876 71.5 32.7976 71.39C32.9076 71.28 33.0676 71.225 33.2776 71.225C33.4876 71.225 33.6401 71.275 33.7351 71.375C33.8351 71.475 33.9026 71.63 33.9376 71.84C34.0126 72.185 34.1726 72.4225 34.4176 72.5525C34.6676 72.6775 35.0476 72.74 35.5576 72.74H37.7176C38.3626 72.74 38.8001 72.625 39.0301 72.395C39.2651 72.16 39.3826 71.725 39.3826 71.09C39.3826 70.445 39.2626 70.005 39.0226 69.77C38.7826 69.53 38.3476 69.41 37.7176 69.41H35.8576C34.9126 69.41 34.2101 69.18 33.7501 68.72C33.2951 68.255 33.0676 67.55 33.0676 66.605C33.0676 65.665 33.2926 64.9675 33.7426 64.5125C34.1976 64.0575 34.8976 63.83 35.8426 63.83H37.6276C38.4226 63.83 39.0451 63.9925 39.4951 64.3175C39.9501 64.6425 40.2376 65.14 40.3576 65.81C40.3876 66.025 40.3476 66.19 40.2376 66.305C40.1276 66.415 39.9626 66.47 39.7426 66.47C39.5426 66.47 39.3926 66.4175 39.2926 66.3125C39.1926 66.2075 39.1276 66.055 39.0976 65.855C39.0176 65.56 38.8651 65.36 38.6401 65.255C38.4151 65.145 38.0776 65.09 37.6276 65.09H35.8426C35.2426 65.09 34.8401 65.1975 34.6351 65.4125C34.4301 65.6225 34.3276 66.02 34.3276 66.605C34.3276 67.195 34.4326 67.6 34.6426 67.82C34.8526 68.04 35.2576 68.15 35.8576 68.15H37.7176C38.7026 68.15 39.4351 68.39 39.9151 68.87C40.4001 69.35 40.6426 70.09 40.6426 71.09C40.6426 72.085 40.4026 72.82 39.9226 73.295C39.4426 73.765 38.7076 74 37.7176 74H35.5576ZM45.6988 74C45.4888 74 45.3313 73.9475 45.2262 73.8425C45.1213 73.7375 45.0688 73.58 45.0688 73.37V65.105H42.1588C41.9488 65.105 41.7913 65.0525 41.6863 64.9475C41.5813 64.8425 41.5288 64.685 41.5288 64.475C41.5288 64.265 41.5813 64.1075 41.6863 64.0025C41.7913 63.8975 41.9488 63.845 42.1588 63.845H49.2388C49.4488 63.845 49.6063 63.8975 49.7113 64.0025C49.8163 64.1075 49.8688 64.265 49.8688 64.475C49.8688 64.685 49.8163 64.8425 49.7113 64.9475C49.6063 65.0525 49.4488 65.105 49.2388 65.105H46.3288V73.37C46.3288 73.57 46.2738 73.725 46.1638 73.835C46.0588 73.945 45.9038 74 45.6988 74ZM52.4976 74C52.0776 74 51.8676 73.79 51.8676 73.37V64.46C51.8676 64.04 52.0776 63.83 52.4976 63.83H57.8826C58.3026 63.83 58.5126 64.04 58.5126 64.46C58.5126 64.88 58.3026 65.09 57.8826 65.09H53.1276V68.24H56.1126C56.5326 68.24 56.7426 68.45 56.7426 68.87C56.7426 69.29 56.5326 69.5 56.1126 69.5H53.1276V72.74H57.8826C58.3026 72.74 58.5126 72.95 58.5126 73.37C58.5126 73.79 58.3026 74 57.8826 74H52.4976ZM61.5357 74C61.1157 74 60.9057 73.79 60.9057 73.37V64.46C60.9057 64.04 61.1157 63.83 61.5357 63.83H65.0457C65.9607 63.83 66.6607 64.075 67.1457 64.565C67.6357 65.05 67.8807 65.75 67.8807 66.665V67.115C67.8807 68.03 67.6357 68.7325 67.1457 69.2225C66.6607 69.7075 65.9607 69.95 65.0457 69.95H62.1657V73.37C62.1657 73.79 61.9557 74 61.5357 74ZM62.1657 68.69H65.0457C65.6157 68.69 66.0207 68.57 66.2607 68.33C66.5007 68.09 66.6207 67.685 66.6207 67.115V66.665C66.6207 66.1 66.5007 65.6975 66.2607 65.4575C66.0207 65.2125 65.6157 65.09 65.0457 65.09H62.1657V68.69Z" fill="white"/>
</svg>
