<svg width="100" height="100" viewBox="0 0 100 100" fill="none" xmlns="http://www.w3.org/2000/svg">
<circle cx="50" cy="50" r="50" fill="#77B900"/>
<circle cx="50" cy="50" r="44.5" stroke="white" stroke-linecap="round" stroke-dasharray="8 8"/>
<path d="M41.23 55.96C38.1767 55.96 35.9167 55.2333 34.45 53.78C32.9967 52.3133 32.27 50.0533 32.27 47V37.76C32.27 34.68 32.9967 32.4133 34.45 30.96C35.9167 29.5067 38.1767 28.8 41.23 28.84H43.63C46.6967 28.84 48.9567 29.5667 50.41 31.02C51.8633 32.46 52.59 34.72 52.59 37.8V47C52.59 50.0533 51.8633 52.3133 50.41 53.78C48.9567 55.2333 46.6967 55.96 43.63 55.96H41.23ZM41.23 52.6H43.63C45.0567 52.6 46.1767 52.4267 46.99 52.08C47.8033 51.7333 48.3767 51.1533 48.71 50.34C49.0567 49.5267 49.23 48.4133 49.23 47V37.8C49.23 36.3733 49.0567 35.2533 48.71 34.44C48.3767 33.6267 47.8033 33.0533 46.99 32.72C46.1767 32.3733 45.0567 32.2 43.63 32.2H41.23C39.8167 32.1733 38.7033 32.3267 37.89 32.66C37.0767 32.98 36.4967 33.5533 36.15 34.38C35.8033 35.1933 35.63 36.32 35.63 37.76V47C35.63 48.4133 35.7967 49.5267 36.13 50.34C36.4767 51.1533 37.0567 51.7333 37.87 52.08C38.6833 52.4267 39.8033 52.6 41.23 52.6ZM41.95 44.36C40.8833 44.36 40.35 43.8267 40.35 42.76V41.76C40.35 40.72 40.8833 40.2 41.95 40.2H42.91C43.9233 40.2 44.43 40.72 44.43 41.76V42.76C44.43 43.8267 43.9233 44.36 42.91 44.36H41.95ZM65.5831 56C64.4631 56 63.9031 55.44 63.9031 54.32V33.68L64.8231 33.04L60.4231 37.16C60.0898 37.48 59.7365 37.6733 59.3631 37.74C58.9898 37.7933 58.6231 37.64 58.2631 37.28C57.5431 36.56 57.5831 35.8 58.3831 35L63.7431 29.72C64.3031 29.16 64.9965 28.88 65.8231 28.88C66.7831 28.88 67.2631 29.44 67.2631 30.56V54.32C67.2631 55.44 66.7031 56 65.5831 56ZM35.5576 74C34.7026 74 34.0351 73.8275 33.5551 73.4825C33.0801 73.1375 32.7826 72.605 32.6626 71.885C32.6426 71.665 32.6876 71.5 32.7976 71.39C32.9076 71.28 33.0676 71.225 33.2776 71.225C33.4876 71.225 33.6401 71.275 33.7351 71.375C33.8351 71.475 33.9026 71.63 33.9376 71.84C34.0126 72.185 34.1726 72.4225 34.4176 72.5525C34.6676 72.6775 35.0476 72.74 35.5576 72.74H37.7176C38.3626 72.74 38.8001 72.625 39.0301 72.395C39.2651 72.16 39.3826 71.725 39.3826 71.09C39.3826 70.445 39.2626 70.005 39.0226 69.77C38.7826 69.53 38.3476 69.41 37.7176 69.41H35.8576C34.9126 69.41 34.2101 69.18 33.7501 68.72C33.2951 68.255 33.0676 67.55 33.0676 66.605C33.0676 65.665 33.2926 64.9675 33.7426 64.5125C34.1976 64.0575 34.8976 63.83 35.8426 63.83H37.6276C38.4226 63.83 39.0451 63.9925 39.4951 64.3175C39.9501 64.6425 40.2376 65.14 40.3576 65.81C40.3876 66.025 40.3476 66.19 40.2376 66.305C40.1276 66.415 39.9626 66.47 39.7426 66.47C39.5426 66.47 39.3926 66.4175 39.2926 66.3125C39.1926 66.2075 39.1276 66.055 39.0976 65.855C39.0176 65.56 38.8651 65.36 38.6401 65.255C38.4151 65.145 38.0776 65.09 37.6276 65.09H35.8426C35.2426 65.09 34.8401 65.1975 34.6351 65.4125C34.4301 65.6225 34.3276 66.02 34.3276 66.605C34.3276 67.195 34.4326 67.6 34.6426 67.82C34.8526 68.04 35.2576 68.15 35.8576 68.15H37.7176C38.7026 68.15 39.4351 68.39 39.9151 68.87C40.4001 69.35 40.6426 70.09 40.6426 71.09C40.6426 72.085 40.4026 72.82 39.9226 73.295C39.4426 73.765 38.7076 74 37.7176 74H35.5576ZM45.6988 74C45.4888 74 45.3313 73.9475 45.2262 73.8425C45.1213 73.7375 45.0688 73.58 45.0688 73.37V65.105H42.1588C41.9488 65.105 41.7913 65.0525 41.6863 64.9475C41.5813 64.8425 41.5288 64.685 41.5288 64.475C41.5288 64.265 41.5813 64.1075 41.6863 64.0025C41.7913 63.8975 41.9488 63.845 42.1588 63.845H49.2388C49.4488 63.845 49.6063 63.8975 49.7113 64.0025C49.8163 64.1075 49.8688 64.265 49.8688 64.475C49.8688 64.685 49.8163 64.8425 49.7113 64.9475C49.6063 65.0525 49.4488 65.105 49.2388 65.105H46.3288V73.37C46.3288 73.57 46.2738 73.725 46.1638 73.835C46.0588 73.945 45.9038 74 45.6988 74ZM52.4976 74C52.0776 74 51.8676 73.79 51.8676 73.37V64.46C51.8676 64.04 52.0776 63.83 52.4976 63.83H57.8826C58.3026 63.83 58.5126 64.04 58.5126 64.46C58.5126 64.88 58.3026 65.09 57.8826 65.09H53.1276V68.24H56.1126C56.5326 68.24 56.7426 68.45 56.7426 68.87C56.7426 69.29 56.5326 69.5 56.1126 69.5H53.1276V72.74H57.8826C58.3026 72.74 58.5126 72.95 58.5126 73.37C58.5126 73.79 58.3026 74 57.8826 74H52.4976ZM61.5357 74C61.1157 74 60.9057 73.79 60.9057 73.37V64.46C60.9057 64.04 61.1157 63.83 61.5357 63.83H65.0457C65.9607 63.83 66.6607 64.075 67.1457 64.565C67.6357 65.05 67.8807 65.75 67.8807 66.665V67.115C67.8807 68.03 67.6357 68.7325 67.1457 69.2225C66.6607 69.7075 65.9607 69.95 65.0457 69.95H62.1657V73.37C62.1657 73.79 61.9557 74 61.5357 74ZM62.1657 68.69H65.0457C65.6157 68.69 66.0207 68.57 66.2607 68.33C66.5007 68.09 66.6207 67.685 66.6207 67.115V66.665C66.6207 66.1 66.5007 65.6975 66.2607 65.4575C66.0207 65.2125 65.6157 65.09 65.0457 65.09H62.1657V68.69Z" fill="white"/>
</svg>
