<svg width="100" height="100" viewBox="0 0 100 100" fill="none" xmlns="http://www.w3.org/2000/svg">
<circle cx="50" cy="50" r="50" fill="#77B900"/>
<circle cx="50" cy="50" r="44.5" stroke="white" stroke-linecap="round" stroke-dasharray="8 8"/>
<path d="M35.4488 55.96C32.3954 55.96 30.1354 55.2333 28.6688 53.78C27.2154 52.3133 26.4888 50.0533 26.4888 47V37.76C26.4888 34.68 27.2154 32.4133 28.6688 30.96C30.1354 29.5067 32.3954 28.8 35.4488 28.84H37.8488C40.9154 28.84 43.1754 29.5667 44.6288 31.02C46.0821 32.46 46.8088 34.72 46.8088 37.8V47C46.8088 50.0533 46.0821 52.3133 44.6288 53.78C43.1754 55.2333 40.9154 55.96 37.8488 55.96H35.4488ZM35.4488 52.6H37.8488C39.2754 52.6 40.3954 52.4267 41.2088 52.08C42.0221 51.7333 42.5954 51.1533 42.9288 50.34C43.2754 49.5267 43.4488 48.4133 43.4488 47V37.8C43.4488 36.3733 43.2754 35.2533 42.9288 34.44C42.5954 33.6267 42.0221 33.0533 41.2088 32.72C40.3954 32.3733 39.2754 32.2 37.8488 32.2H35.4488C34.0354 32.1733 32.9221 32.3267 32.1088 32.66C31.2954 32.98 30.7154 33.5533 30.3688 34.38C30.0221 35.1933 29.8488 36.32 29.8488 37.76V47C29.8488 48.4133 30.0154 49.5267 30.3488 50.34C30.6954 51.1533 31.2754 51.7333 32.0888 52.08C32.9021 52.4267 34.0221 52.6 35.4488 52.6ZM36.1688 44.36C35.1021 44.36 34.5688 43.8267 34.5688 42.76V41.76C34.5688 40.72 35.1021 40.2 36.1688 40.2H37.1288C38.1421 40.2 38.6488 40.72 38.6488 41.76V42.76C38.6488 43.8267 38.1421 44.36 37.1288 44.36H36.1688ZM61.5525 56C59.2192 56 57.4125 55.5133 56.1325 54.54C54.8658 53.5533 54.0992 52.04 53.8325 50C53.7792 49.44 53.8992 49.0067 54.1925 48.7C54.4858 48.3933 54.9125 48.24 55.4725 48.24C56.4992 48.24 57.0725 48.7867 57.1925 49.88C57.3792 50.92 57.7992 51.64 58.4525 52.04C59.1058 52.44 60.1392 52.64 61.5525 52.64H65.7125C67.4325 52.64 68.5992 52.3267 69.2125 51.7C69.8392 51.06 70.1525 49.8933 70.1525 48.2V45.44C70.1525 43.72 69.8392 42.5533 69.2125 41.94C68.5858 41.3133 67.4192 41 65.7125 41H62.7525C60.7792 41 59.3525 41.24 58.4725 41.72C58.0725 41.96 57.7058 42.14 57.3725 42.26C57.0525 42.38 56.6725 42.3733 56.2325 42.24L55.8325 42.12C54.8992 41.8533 54.4325 41.2267 54.4325 40.24V30.56C54.4325 29.44 54.9925 28.88 56.1125 28.88H71.8325C72.9525 28.88 73.5125 29.44 73.5125 30.56C73.5125 31.68 72.9525 32.24 71.8325 32.24H57.7925V38.36C59.1525 37.88 60.8058 37.64 62.7525 37.64H65.7125C68.3525 37.64 70.3125 38.28 71.5925 39.56C72.8725 40.84 73.5125 42.8 73.5125 45.44V48.2C73.5125 50.84 72.8725 52.8 71.5925 54.08C70.3125 55.36 68.3525 56 65.7125 56H61.5525ZM35.5576 74C34.7026 74 34.0351 73.8275 33.5551 73.4825C33.0801 73.1375 32.7826 72.605 32.6626 71.885C32.6426 71.665 32.6876 71.5 32.7976 71.39C32.9076 71.28 33.0676 71.225 33.2776 71.225C33.4876 71.225 33.6401 71.275 33.7351 71.375C33.8351 71.475 33.9026 71.63 33.9376 71.84C34.0126 72.185 34.1726 72.4225 34.4176 72.5525C34.6676 72.6775 35.0476 72.74 35.5576 72.74H37.7176C38.3626 72.74 38.8001 72.625 39.0301 72.395C39.2651 72.16 39.3826 71.725 39.3826 71.09C39.3826 70.445 39.2626 70.005 39.0226 69.77C38.7826 69.53 38.3476 69.41 37.7176 69.41H35.8576C34.9126 69.41 34.2101 69.18 33.7501 68.72C33.2951 68.255 33.0676 67.55 33.0676 66.605C33.0676 65.665 33.2926 64.9675 33.7426 64.5125C34.1976 64.0575 34.8976 63.83 35.8426 63.83H37.6276C38.4226 63.83 39.0451 63.9925 39.4951 64.3175C39.9501 64.6425 40.2376 65.14 40.3576 65.81C40.3876 66.025 40.3476 66.19 40.2376 66.305C40.1276 66.415 39.9626 66.47 39.7426 66.47C39.5426 66.47 39.3926 66.4175 39.2926 66.3125C39.1926 66.2075 39.1276 66.055 39.0976 65.855C39.0176 65.56 38.8651 65.36 38.6401 65.255C38.4151 65.145 38.0776 65.09 37.6276 65.09H35.8426C35.2426 65.09 34.8401 65.1975 34.6351 65.4125C34.4301 65.6225 34.3276 66.02 34.3276 66.605C34.3276 67.195 34.4326 67.6 34.6426 67.82C34.8526 68.04 35.2576 68.15 35.8576 68.15H37.7176C38.7026 68.15 39.4351 68.39 39.9151 68.87C40.4001 69.35 40.6426 70.09 40.6426 71.09C40.6426 72.085 40.4026 72.82 39.9226 73.295C39.4426 73.765 38.7076 74 37.7176 74H35.5576ZM45.6988 74C45.4888 74 45.3313 73.9475 45.2262 73.8425C45.1213 73.7375 45.0688 73.58 45.0688 73.37V65.105H42.1588C41.9488 65.105 41.7913 65.0525 41.6863 64.9475C41.5813 64.8425 41.5288 64.685 41.5288 64.475C41.5288 64.265 41.5813 64.1075 41.6863 64.0025C41.7913 63.8975 41.9488 63.845 42.1588 63.845H49.2388C49.4488 63.845 49.6063 63.8975 49.7113 64.0025C49.8163 64.1075 49.8688 64.265 49.8688 64.475C49.8688 64.685 49.8163 64.8425 49.7113 64.9475C49.6063 65.0525 49.4488 65.105 49.2388 65.105H46.3288V73.37C46.3288 73.57 46.2738 73.725 46.1638 73.835C46.0588 73.945 45.9038 74 45.6988 74ZM52.4976 74C52.0776 74 51.8676 73.79 51.8676 73.37V64.46C51.8676 64.04 52.0776 63.83 52.4976 63.83H57.8826C58.3026 63.83 58.5126 64.04 58.5126 64.46C58.5126 64.88 58.3026 65.09 57.8826 65.09H53.1276V68.24H56.1126C56.5326 68.24 56.7426 68.45 56.7426 68.87C56.7426 69.29 56.5326 69.5 56.1126 69.5H53.1276V72.74H57.8826C58.3026 72.74 58.5126 72.95 58.5126 73.37C58.5126 73.79 58.3026 74 57.8826 74H52.4976ZM61.5357 74C61.1157 74 60.9057 73.79 60.9057 73.37V64.46C60.9057 64.04 61.1157 63.83 61.5357 63.83H65.0457C65.9607 63.83 66.6607 64.075 67.1457 64.565C67.6357 65.05 67.8807 65.75 67.8807 66.665V67.115C67.8807 68.03 67.6357 68.7325 67.1457 69.2225C66.6607 69.7075 65.9607 69.95 65.0457 69.95H62.1657V73.37C62.1657 73.79 61.9557 74 61.5357 74ZM62.1657 68.69H65.0457C65.6157 68.69 66.0207 68.57 66.2607 68.33C66.5007 68.09 66.6207 67.685 66.6207 67.115V66.665C66.6207 66.1 66.5007 65.6975 66.2607 65.4575C66.0207 65.2125 65.6157 65.09 65.0457 65.09H62.1657V68.69Z" fill="white"/>
</svg>
