<svg width="100" height="100" viewBox="0 0 100 100" fill="none" xmlns="http://www.w3.org/2000/svg">
<circle cx="50" cy="50" r="50" fill="#77B900"/>
<circle cx="50" cy="50" r="44.5" stroke="white" stroke-linecap="round" stroke-dasharray="8 8"/>
<path d="M35.7222 55.96C32.6689 55.96 30.4089 55.2333 28.9422 53.78C27.4889 52.3133 26.7622 50.0533 26.7622 47V37.76C26.7622 34.68 27.4889 32.4133 28.9422 30.96C30.4089 29.5067 32.6689 28.8 35.7222 28.84H38.1222C41.1889 28.84 43.4489 29.5667 44.9022 31.02C46.3555 32.46 47.0822 34.72 47.0822 37.8V47C47.0822 50.0533 46.3555 52.3133 44.9022 53.78C43.4489 55.2333 41.1889 55.96 38.1222 55.96H35.7222ZM35.7222 52.6H38.1222C39.5489 52.6 40.6689 52.4267 41.4822 52.08C42.2955 51.7333 42.8689 51.1533 43.2022 50.34C43.5489 49.5267 43.7222 48.4133 43.7222 47V37.8C43.7222 36.3733 43.5489 35.2533 43.2022 34.44C42.8689 33.6267 42.2955 33.0533 41.4822 32.72C40.6689 32.3733 39.5489 32.2 38.1222 32.2H35.7222C34.3089 32.1733 33.1955 32.3267 32.3822 32.66C31.5689 32.98 30.9889 33.5533 30.6422 34.38C30.2955 35.1933 30.1222 36.32 30.1222 37.76V47C30.1222 48.4133 30.2889 49.5267 30.6222 50.34C30.9689 51.1533 31.5489 51.7333 32.3622 52.08C33.1755 52.4267 34.2955 52.6 35.7222 52.6ZM36.4422 44.36C35.3755 44.36 34.8422 43.8267 34.8422 42.76V41.76C34.8422 40.72 35.3755 40.2 36.4422 40.2H37.4022C38.4155 40.2 38.9222 40.72 38.9222 41.76V42.76C38.9222 43.8267 38.4155 44.36 37.4022 44.36H36.4422ZM60.8659 56C58.5326 56 56.7259 55.5133 55.4459 54.54C54.1793 53.5533 53.4126 52.04 53.1459 50C53.0926 49.44 53.2126 49.0067 53.5059 48.7C53.7993 48.3933 54.2259 48.24 54.7859 48.24C55.8126 48.24 56.3859 48.8 56.5059 49.92C56.6926 50.96 57.1126 51.6733 57.7659 52.06C58.4193 52.4467 59.4526 52.64 60.8659 52.64H65.4259C67.1459 52.64 68.3126 52.3333 68.9259 51.72C69.5526 51.0933 69.8659 49.9333 69.8659 48.24C69.8659 46.56 69.5526 45.4067 68.9259 44.78C68.3126 44.1533 67.1459 43.84 65.4259 43.84H62.3459C61.2259 43.84 60.6659 43.28 60.6659 42.16C60.6659 41.04 61.2259 40.48 62.3459 40.48H66.9459C67.7859 40.48 68.3726 40.1067 68.7059 39.36C69.0526 38.6 69.2259 37.5733 69.2259 36.28C69.2259 34.6933 68.9393 33.6267 68.3659 33.08C67.8059 32.52 66.7459 32.24 65.1859 32.24H61.3059C60.0526 32.24 59.1259 32.4067 58.5259 32.74C57.9259 33.0733 57.5459 33.6933 57.3859 34.6C57.2259 35.6933 56.6393 36.24 55.6259 36.24C55.0659 36.24 54.6393 36.0933 54.3459 35.8C54.0526 35.4933 53.9459 35.0533 54.0259 34.48C54.2926 32.6 55.0259 31.2 56.2259 30.28C57.4393 29.3467 59.1326 28.88 61.3059 28.88H65.1859C67.6926 28.88 69.5526 29.4867 70.7659 30.7C71.9793 31.9133 72.5859 33.7733 72.5859 36.28C72.5859 38.7467 71.8926 40.4933 70.5059 41.52C71.4259 42.12 72.1059 42.9733 72.5459 44.08C72.9993 45.1867 73.2259 46.5733 73.2259 48.24C73.2259 50.88 72.5926 52.8333 71.3259 54.1C70.0593 55.3667 68.0926 56 65.4259 56H60.8659ZM35.5576 74C34.7026 74 34.0351 73.8275 33.5551 73.4825C33.0801 73.1375 32.7826 72.605 32.6626 71.885C32.6426 71.665 32.6876 71.5 32.7976 71.39C32.9076 71.28 33.0676 71.225 33.2776 71.225C33.4876 71.225 33.6401 71.275 33.7351 71.375C33.8351 71.475 33.9026 71.63 33.9376 71.84C34.0126 72.185 34.1726 72.4225 34.4176 72.5525C34.6676 72.6775 35.0476 72.74 35.5576 72.74H37.7176C38.3626 72.74 38.8001 72.625 39.0301 72.395C39.2651 72.16 39.3826 71.725 39.3826 71.09C39.3826 70.445 39.2626 70.005 39.0226 69.77C38.7826 69.53 38.3476 69.41 37.7176 69.41H35.8576C34.9126 69.41 34.2101 69.18 33.7501 68.72C33.2951 68.255 33.0676 67.55 33.0676 66.605C33.0676 65.665 33.2926 64.9675 33.7426 64.5125C34.1976 64.0575 34.8976 63.83 35.8426 63.83H37.6276C38.4226 63.83 39.0451 63.9925 39.4951 64.3175C39.9501 64.6425 40.2376 65.14 40.3576 65.81C40.3876 66.025 40.3476 66.19 40.2376 66.305C40.1276 66.415 39.9626 66.47 39.7426 66.47C39.5426 66.47 39.3926 66.4175 39.2926 66.3125C39.1926 66.2075 39.1276 66.055 39.0976 65.855C39.0176 65.56 38.8651 65.36 38.6401 65.255C38.4151 65.145 38.0776 65.09 37.6276 65.09H35.8426C35.2426 65.09 34.8401 65.1975 34.6351 65.4125C34.4301 65.6225 34.3276 66.02 34.3276 66.605C34.3276 67.195 34.4326 67.6 34.6426 67.82C34.8526 68.04 35.2576 68.15 35.8576 68.15H37.7176C38.7026 68.15 39.4351 68.39 39.9151 68.87C40.4001 69.35 40.6426 70.09 40.6426 71.09C40.6426 72.085 40.4026 72.82 39.9226 73.295C39.4426 73.765 38.7076 74 37.7176 74H35.5576ZM45.6988 74C45.4888 74 45.3313 73.9475 45.2262 73.8425C45.1213 73.7375 45.0688 73.58 45.0688 73.37V65.105H42.1588C41.9488 65.105 41.7913 65.0525 41.6863 64.9475C41.5813 64.8425 41.5288 64.685 41.5288 64.475C41.5288 64.265 41.5813 64.1075 41.6863 64.0025C41.7913 63.8975 41.9488 63.845 42.1588 63.845H49.2388C49.4488 63.845 49.6063 63.8975 49.7113 64.0025C49.8163 64.1075 49.8688 64.265 49.8688 64.475C49.8688 64.685 49.8163 64.8425 49.7113 64.9475C49.6063 65.0525 49.4488 65.105 49.2388 65.105H46.3288V73.37C46.3288 73.57 46.2738 73.725 46.1638 73.835C46.0588 73.945 45.9038 74 45.6988 74ZM52.4976 74C52.0776 74 51.8676 73.79 51.8676 73.37V64.46C51.8676 64.04 52.0776 63.83 52.4976 63.83H57.8826C58.3026 63.83 58.5126 64.04 58.5126 64.46C58.5126 64.88 58.3026 65.09 57.8826 65.09H53.1276V68.24H56.1126C56.5326 68.24 56.7426 68.45 56.7426 68.87C56.7426 69.29 56.5326 69.5 56.1126 69.5H53.1276V72.74H57.8826C58.3026 72.74 58.5126 72.95 58.5126 73.37C58.5126 73.79 58.3026 74 57.8826 74H52.4976ZM61.5357 74C61.1157 74 60.9057 73.79 60.9057 73.37V64.46C60.9057 64.04 61.1157 63.83 61.5357 63.83H65.0457C65.9607 63.83 66.6607 64.075 67.1457 64.565C67.6357 65.05 67.8807 65.75 67.8807 66.665V67.115C67.8807 68.03 67.6357 68.7325 67.1457 69.2225C66.6607 69.7075 65.9607 69.95 65.0457 69.95H62.1657V73.37C62.1657 73.79 61.9557 74 61.5357 74ZM62.1657 68.69H65.0457C65.6157 68.69 66.0207 68.57 66.2607 68.33C66.5007 68.09 66.6207 67.685 66.6207 67.115V66.665C66.6207 66.1 66.5007 65.6975 66.2607 65.4575C66.0207 65.2125 65.6157 65.09 65.0457 65.09H62.1657V68.69Z" fill="white"/>
</svg>
