<svg width="98" height="100" viewBox="0 0 98 100" fill="none" xmlns="http://www.w3.org/2000/svg">
<g clip-path="url(#clip0_153_6534)">
<path d="M59.7026 29.8122C59.9374 32.1988 60.2112 34.4679 60.3286 36.698C60.5634 40.4538 60.6807 44.2488 60.9155 48.0047C60.9546 48.3959 61.2676 48.748 61.4241 49.1393C61.6197 49.6479 61.9718 50.2739 61.8544 50.7042C61.6979 51.1346 61.072 51.4476 60.6025 51.7214C60.3677 51.8388 60.0156 51.7606 59.7418 51.7606C52.4648 51.7606 45.2269 51.7606 37.9499 51.7606C37.5978 51.7606 37.2457 51.7606 36.7762 51.7606C36.8544 58.2551 37.2065 64.6714 38.1064 71.1659C39.867 71.2833 41.5884 71.4789 43.3098 71.4789C47.2613 71.4789 51.1737 71.3615 55.1252 71.3224C55.6729 71.3224 56.3771 71.5571 56.7684 71.9092C57.0422 72.1831 57.1205 73.0047 56.8857 73.3177C56.5336 73.748 55.8685 74.1784 55.3208 74.2175C51.7605 74.374 48.2394 74.4131 44.6792 74.4914C42.6838 74.5305 40.7277 74.4914 38.615 74.4914C38.7324 75.2739 38.8889 76.252 39.0845 77.23C39.9843 81.8466 41.0798 86.4241 43.1142 90.7277C43.5054 91.5102 43.9358 91.9405 44.8748 91.9014C46.6745 91.8232 48.435 91.8623 50.2347 91.9014C50.8607 91.9014 51.2128 91.7058 51.5258 91.1189C53.2472 87.6761 54.2644 84.0376 55.1252 80.3208C55.399 79.1471 55.5947 77.9734 55.8685 76.7997C56.1033 75.7825 56.8075 75.2739 57.7073 75.5086C58.5289 75.7042 58.9202 76.4476 58.7245 77.4257C57.8638 82.1205 56.6901 86.7762 54.6948 91.3537C55.1252 91.2754 55.399 91.2754 55.6729 91.1972C56.9249 90.8842 58.1768 90.5712 59.4679 90.2582C60.6025 89.9844 61.5023 89.4366 62.2457 88.615C62.7934 88.0282 63.3411 87.4022 63.9671 86.8545C64.7887 86.1111 65.8059 86.3459 66.3145 87.3239C66.4319 87.5587 66.5493 87.8326 66.7449 88.0282C67.8012 89.0454 67.6839 90.18 66.3537 90.6886C63.6541 91.7449 60.9937 92.8795 58.1768 93.5837C33.3724 99.8435 8.41155 83.8419 3.63847 58.7246C2.23002 51.4085 2.66038 44.1706 4.89043 37.011C5.24254 35.9155 5.94676 35.4069 6.80748 35.6808C7.70733 35.9546 8.02032 36.7762 7.6682 37.9108C6.69011 41.1581 6.02501 44.4836 5.86852 47.8873C5.86852 48.2003 5.86852 48.5133 5.86852 48.8654C9.27227 48.8654 12.5978 48.8654 15.9233 48.8654C16.2754 46.5571 16.5884 46.0485 17.5665 46.0876C18.5837 46.1268 18.8576 46.6745 19.0141 48.8654C23.9045 48.8654 28.795 48.8654 33.9984 48.8654C33.9984 47.1831 33.9984 45.5008 33.9984 43.8185C33.9984 43.1534 33.9984 42.4491 34.0767 41.784C34.194 40.9233 34.82 40.4147 35.6025 40.4538C36.3849 40.493 36.9718 41.0798 36.9327 41.9405C36.9327 43.5446 36.8544 45.1487 36.8153 46.7136C36.8153 47.3787 36.8153 48.0829 36.8153 48.8263C43.8576 48.8263 50.8607 48.8263 57.9812 48.8263C57.9812 48.0047 58.0203 47.1831 57.9812 46.3615C57.6291 41.1189 57.2378 35.8372 56.8466 30.5947C56.8075 30.1252 56.9249 29.5383 56.1033 29.4992C50.1565 29.0297 44.2097 29.0689 38.1064 29.5775C37.9108 31.2598 37.7152 32.9421 37.5195 34.5853C37.4804 35.0157 37.4413 35.446 37.363 35.8372C37.2065 36.698 36.5806 37.1675 35.7981 37.0892C34.9765 37.011 34.4288 36.3459 34.507 35.446C34.6635 33.8419 34.82 32.1988 35.0156 30.5947C35.0156 30.3991 35.0156 30.2034 35.0156 29.8905C33.9984 30.0078 33.0594 30.1252 32.1205 30.2426C31.8466 30.2817 31.6119 30.3208 31.338 30.3599C30.2034 30.4773 29.4601 30.0078 29.3818 29.108C29.2644 28.2473 29.8904 27.5822 31.025 27.4257C32.5117 27.2301 33.9984 27.0344 35.5634 26.7997C36.5414 20.892 37.7152 15.0626 40.2191 9.31143C38.615 9.70266 37.2065 10.0157 35.7981 10.4069C34.2723 10.8372 33.4898 10.6025 33.2159 9.58529C32.9421 8.6072 33.4507 8.02035 34.9374 7.58999C60.0547 0.195622 86.3067 16.2363 91.2363 41.9797C91.471 43.1142 91.5884 44.288 91.7449 45.4617C91.8623 46.518 91.3537 47.2222 90.4538 47.3005C89.6322 47.3787 89.0062 46.831 88.8497 45.8138C88.4194 43.5837 88.0281 41.3537 87.5587 39.1236C87.4804 38.8106 87.3239 38.3803 87.05 38.2238C83.9202 36.2676 80.5947 34.7809 76.9562 33.5681C77.3083 35.3678 77.6213 37.0501 77.9342 38.7324C78.1299 39.867 78.2864 40.9624 78.4037 42.097C78.5211 43.1534 77.9734 43.8576 77.1127 43.9358C76.2911 44.0141 75.6651 43.3881 75.4695 42.3709C74.9217 39.3193 74.3349 36.2285 73.7089 33.1768C73.6306 32.8639 73.2785 32.3944 72.9655 32.3552C68.8576 31.4945 64.7496 30.7121 60.6416 29.9296C60.2504 29.8122 60.0547 29.8513 59.7026 29.8122ZM18.8967 51.7997C18.8967 52.23 18.8967 52.543 18.8967 52.856C19.0923 57.7465 19.7574 62.5587 20.9702 67.2926C21.1267 67.9186 21.4006 68.2316 22.0266 68.349C25.0782 68.975 28.1299 69.6792 31.1815 70.266C32.3943 70.5008 33.6463 70.6182 34.82 70.7747C34.3896 64.3584 33.9984 58.0986 33.6072 51.7606C28.7558 51.7997 23.8654 51.7997 18.8967 51.7997ZM38.4976 26.252C44.4444 26.252 50.2738 26.252 56.1815 26.252C55.8685 24.6088 55.5947 22.9656 55.2425 21.3224C54.3818 17.3318 53.3255 13.3803 51.5258 9.66354C51.2128 9.03756 50.8216 8.7637 50.1173 8.7637C48.3177 8.80282 46.5571 8.80282 44.7574 8.7637C43.9358 8.72457 43.5054 9.03756 43.1142 9.78091C40.6103 15.0235 39.4757 20.6182 38.4976 26.252ZM22.3787 71.6354C22.3787 71.7136 22.3787 71.7919 22.4178 71.9092C24.4522 77.6995 27.4256 82.9421 31.4945 87.5587C33.8028 90.2191 36.8936 90.493 40.1017 91.3146C37.6369 85.6025 36.4241 79.7731 35.4851 73.9828C31.0641 73.2003 26.7214 72.4178 22.3787 71.6354ZM72.3396 28.9515C70.266 23.0438 67.2926 17.7621 63.1455 13.0282C60.8372 10.3678 57.7464 10.0939 54.5383 9.2723C57.0422 14.9844 58.2159 20.8138 59.194 26.6041C63.615 27.3865 67.9186 28.169 72.3396 28.9515ZM17.6056 66.9797C16.9405 61.8936 16.3145 56.8858 15.6885 51.7997C12.5195 51.7997 9.19403 51.7997 5.79027 51.7997C5.86852 55.2817 6.45537 58.6463 7.39434 61.8936C7.43346 62.0501 7.58996 62.2457 7.74645 62.3239C10.8372 64.3584 14.2018 65.8451 17.6056 66.9797ZM68.1142 14.2019C68.2316 14.4757 68.2316 14.5931 68.2707 14.6322C71.5571 19.1315 73.9045 24.1002 75.626 29.421C75.7433 29.7731 76.1737 30.1252 76.5258 30.2817C79.4209 31.4945 82.3161 32.6291 85.2112 33.8028C85.2895 33.8419 85.4069 33.8419 85.6807 33.9202C81.8466 25.4304 76.0954 18.975 68.1142 14.2019ZM26.4867 86.1502C26.4084 86.0329 26.3693 85.9546 26.291 85.8372C23.0829 81.4163 20.7746 76.5649 19.1314 71.4006C18.8967 70.6964 18.5054 70.3834 17.8403 70.1487C15.1017 69.0923 12.4022 67.9969 9.70263 66.9014C9.50701 66.8232 9.35052 66.784 8.99841 66.6667C12.7934 75.1174 18.5446 81.5728 26.4867 86.1502Z" fill="#77B900"/>
<path d="M97.1828 65.3364C97.1436 69.9139 96.009 73.5915 93.6616 76.917C91.3142 80.2425 88.9668 83.5681 86.502 86.7762C84.4676 89.4366 83.0983 92.3709 82.5896 95.6964C82.394 97.0266 81.9245 98.2003 80.79 99.061C78.3252 100.939 74.7258 99.8044 73.826 96.831C73.7086 96.4788 73.6303 96.1267 73.5912 95.7746C73.0435 92.3709 71.6742 89.3583 69.5224 86.6197C67.6444 84.2331 65.9621 81.7292 64.1624 79.3036C64.0059 79.108 63.8494 78.8732 63.7321 78.6776C63.3408 77.9342 63.4582 77.2691 64.1233 76.7605C64.7884 76.2519 65.4535 76.3693 66.0404 76.9562C66.236 77.1518 66.3533 77.3474 66.5098 77.5821C68.2313 79.9296 69.8353 82.3161 71.635 84.5853C74.1781 87.7934 75.8604 91.3537 76.4864 95.3834C76.6429 96.3224 76.995 97.0266 78.0513 97.0657C78.8729 97.1048 79.4598 96.518 79.6162 95.3834C80.2422 91.3928 81.8463 87.9108 84.3502 84.7418C86.6194 81.8466 88.6929 78.8341 90.8447 75.8216C95.8134 68.9358 95.2266 60.2504 89.4363 54.4601C84.1546 49.1784 75.8213 48.2394 69.4832 52.1909C63.067 56.2206 60.2892 64.0845 62.7931 71.205C62.8713 71.4788 62.9887 71.7527 63.067 72.0266C63.3017 72.8873 62.9887 73.6306 62.2062 73.9045C61.4629 74.1784 60.6804 73.8654 60.3674 73.0438C59.8979 71.7136 59.4285 70.3443 59.1937 68.9358C57.4723 58.7245 64.5537 48.748 74.6475 47.1048C85.2109 45.3443 95.1092 52.3083 96.8698 62.676C97.0263 63.7324 97.1045 64.7887 97.1828 65.3364Z" fill="#77B900"/>
<path d="M31.2599 15.6886C31.1816 19.2488 30.047 22.3787 27.9344 25.2347C26.2129 27.5822 24.6089 29.9687 22.8092 32.2379C21.0486 34.507 19.914 36.9718 19.4054 39.7887C18.8968 42.723 16.119 44.0923 13.6934 42.723C12.7153 42.1753 12.011 41.3146 11.8546 40.2191C11.3851 36.698 9.66363 33.8028 7.55096 31.0642C5.86864 28.9124 4.26457 26.6432 2.69963 24.374C-0.899747 19.1706 -0.899748 12.2066 2.62138 7.00313C6.22075 1.64319 12.637 -0.938968 18.8968 0.430359C25.0001 1.76056 29.8905 6.84663 30.9469 12.989C31.1034 13.8498 31.1425 14.7887 31.2599 15.6886ZM2.93437 15.1408C2.89524 18.1534 3.63859 20.6964 5.28179 23.0047C7.1206 25.5477 8.92028 28.169 10.8373 30.6729C12.7544 33.1768 14.0455 35.9155 14.5541 39.0454C14.6323 39.6322 14.7497 40.2582 15.5322 40.2973C16.3146 40.2973 16.432 39.7105 16.5494 39.0845C17.058 35.8372 18.4664 32.9812 20.5009 30.3991C22.4179 27.9343 24.1785 25.3521 26.0173 22.8091C27.4258 20.8138 28.1691 18.5837 28.2474 16.1581C28.4821 9.07668 22.9657 3.24726 15.8452 3.01252C8.95941 2.77778 3.16911 8.33333 2.93437 15.1408Z" fill="#77B900"/>
<path d="M88.0675 65.9234C88.0675 71.4398 83.5292 75.9781 78.091 75.939C72.4963 75.939 67.9188 71.3224 67.9971 65.806C68.0362 60.3287 72.5354 55.8295 77.9736 55.8295C83.6074 55.8295 88.1066 60.3287 88.0675 65.9234ZM85.1332 65.9234C85.1332 61.9719 81.9642 58.7637 78.0127 58.7637C74.1004 58.7637 70.9314 61.9328 70.9314 65.8451C70.9314 69.7575 74.1786 73.0047 78.0519 73.0047C81.9642 73.0047 85.1332 69.8357 85.1332 65.9234Z" fill="#77B900"/>
<path d="M93.7793 14.6322C93.9357 18.0751 91.9796 21.4006 89.4757 24.4523C88.9279 25.1174 88.1063 25.1956 87.4804 24.7261C86.8544 24.2567 86.6979 23.4742 87.1674 22.7308C87.7151 21.9092 88.3019 21.1659 88.8497 20.3443C92.2926 15.2973 91.1971 8.68546 86.3066 5.04696C81.4944 1.48671 74.8043 2.4648 71.0484 7.19876C70.266 8.17685 69.4835 8.41159 68.7401 7.82474C67.9968 7.27701 67.9968 6.37716 68.7401 5.39907C72.2221 0.782483 78.5993 -1.1737 84.194 0.704235C89.9451 2.62129 93.8184 8.02036 93.7793 14.6322Z" fill="#77B900"/>
<path d="M80.164 6.96399C82.7461 7.08136 84.9371 8.37244 86.189 11.0328C87.4018 13.6541 87.0497 16.158 85.2892 18.4663C84.5067 19.4836 83.2547 19.4836 82.707 18.5055C82.3158 17.8012 82.5505 17.2144 83.02 16.6275C84.3502 14.867 84.2719 12.7934 82.9026 11.2676C81.3768 9.54615 78.7946 9.42878 77.0341 10.9937C76.7602 11.2285 76.5255 11.5415 76.2125 11.6588C75.5474 11.9327 74.9214 11.8153 74.491 11.2285C74.0216 10.6025 74.0607 9.93739 74.6084 9.35053C75.9386 7.74646 77.6992 6.96399 80.164 6.96399Z" fill="#77B900"/>
<path d="M15.8057 10.2895C13.341 10.2112 11.2674 11.6588 10.4849 13.928C9.74158 16.158 10.524 18.6228 12.402 19.9922C14.319 21.4006 16.823 21.4006 18.7791 19.9922C20.6962 18.5837 21.4787 16.1189 20.6571 13.8106C20.5788 13.615 20.5006 13.4585 20.4614 13.2629C20.2267 12.4022 20.5788 11.6197 21.3613 11.3458C22.1046 11.072 22.848 11.4241 23.2001 12.2066C24.5303 15.3364 24.1391 18.2707 21.9873 20.892C19.4834 23.9828 15.1798 24.8044 11.6586 22.9264C8.21575 21.1659 6.49431 17.0579 7.58978 13.302C8.72436 9.50702 12.3237 7.04223 16.3143 7.39434C17.5272 7.47259 18.1532 8.05945 18.114 8.99841C18.0358 9.93738 17.3316 10.3677 16.1187 10.3286C16.0014 10.2895 15.884 10.2895 15.8057 10.2895Z" fill="#77B900"/>
</g>
<defs>
<clipPath id="clip0_153_6534">
<rect width="97.1831" height="100" fill="white"/>
</clipPath>
</defs>
</svg>
