<svg width="100" height="100" viewBox="0 0 100 100" fill="none" xmlns="http://www.w3.org/2000/svg">
<g clip-path="url(#clip0_153_6552)">
<path d="M38.1304 93.1561C35.3146 95.0333 32.5379 96.9105 29.7613 98.7486C26.7108 100.782 24.1297 100.313 22.096 97.2625C15.0956 86.8597 8.09524 76.4177 1.09485 65.9758C-0.743245 63.2382 -0.234837 60.5398 2.50275 58.7408C11.6541 52.6399 20.7663 46.4999 29.9177 40.399C30.5825 39.9688 31.2083 39.4213 31.7167 38.7955C41.2982 26.6328 50.8406 14.431 60.3831 2.26834C62.4949 -0.391027 65.1543 -0.743003 67.8528 1.36885C77.7863 9.1123 87.7198 16.8557 97.6142 24.5992C100.313 26.711 100.626 29.3704 98.5137 32.0689C96.7147 34.3763 94.9157 36.6837 93.0776 38.952C92.6866 39.4604 92.6865 39.7732 93.0385 40.2816C94.6029 42.5108 96.089 44.8182 97.6142 47.0865C99.3741 49.7459 98.8266 52.4834 96.1672 54.2433C85.8817 61.1264 75.5571 68.0094 65.2716 74.9316C64.7241 75.2836 64.2548 75.7529 63.8637 76.2222C58.9752 82.4013 54.1257 88.6195 49.2763 94.7987C47.008 97.6927 44.3878 98.0055 41.5329 95.7373C40.3987 94.916 39.2646 94.0556 38.1304 93.1561ZM14.2352 54.4389C17.6768 62.1432 16.308 68.7525 10.2853 74.5014C12.8273 78.2558 15.3694 82.0493 17.9505 85.9211C21.3921 84.1221 24.9118 83.5746 28.6271 84.2785C32.3815 84.9825 35.4711 86.8597 37.9349 89.7928C53.5 79.3509 69.026 68.9872 84.4347 58.6626C80.9932 50.9582 82.362 44.3098 88.3846 38.6C85.8817 34.8847 83.3788 31.1694 80.9149 27.4932C80.8758 27.415 80.7976 27.3368 80.7585 27.2586C73.6799 30.8956 65.5063 29.0184 60.735 23.3477C59.9138 23.8952 59.0925 24.5601 58.193 24.9512C57.7628 25.1467 56.9806 25.1467 56.6287 24.873C56.2767 24.5992 56.042 23.8561 56.0812 23.3868C56.1203 22.9958 56.5896 22.6047 56.9806 22.3309C61.0088 19.6324 65.037 16.934 69.0651 14.2355C71.9982 12.2801 74.6185 12.7885 76.5739 15.7216C81.1105 22.4873 85.6862 29.2922 90.2227 36.0579C90.4183 36.3708 90.6529 36.6837 90.9267 37.0748C92.8039 34.6891 94.5638 32.4209 96.3627 30.1526C97.3013 28.9402 97.184 28.0016 96.0108 27.063C85.999 19.2414 76.0264 11.4588 66.0147 3.63713C64.7241 2.62031 63.7855 2.77675 62.7687 4.06732C55.1034 13.8053 47.4773 23.5824 39.8121 33.3204C39.6557 33.5159 39.4992 33.7505 39.3428 33.9852C39.6948 33.907 39.9685 33.7505 40.2423 33.555C43.3318 31.4823 46.4605 29.3704 49.5501 27.3368C50.6451 26.5937 51.701 26.9848 51.9748 28.1581C52.2094 29.0967 51.5837 29.5268 50.9189 29.957C41.6502 36.1753 32.3815 42.3544 23.1128 48.5726C20.1797 50.4498 17.2075 52.4443 14.2352 54.4389ZM90.1445 41.1811C85.4515 44.8182 84.2001 52.2097 87.055 56.8636C89.7143 55.1037 92.3737 53.3438 94.9939 51.5448C95.8543 50.9582 95.9716 49.9023 95.385 49.0419C93.6643 46.4216 91.9044 43.8405 90.1445 41.1811ZM19.6322 88.3849C21.3139 90.8878 22.9564 93.3516 24.599 95.8155C25.5767 97.2234 26.437 97.4189 27.8841 96.4803C30.1914 94.9551 32.4988 93.3907 34.7671 91.8655C34.9627 91.7482 35.1582 91.5527 35.3537 91.3962C31.834 86.9379 24.4816 85.53 19.6322 88.3849ZM79.0769 24.7165C77.2779 22.0572 75.5571 19.4369 73.7581 16.8557C73.1324 15.9171 72.1156 15.7607 71.177 16.3473C68.5567 18.0681 65.9365 19.828 63.3162 21.5879C65.8973 25.264 72.8586 27.9625 79.0769 24.7165ZM11.6541 56.1596C8.91651 57.9977 6.25715 59.7576 3.59778 61.5957C2.85472 62.1041 2.65918 63.0818 3.16759 63.864C4.92746 66.5624 6.72645 69.2218 8.52543 71.8812C13.062 68.557 14.509 61.3219 11.6541 56.1596ZM56.2376 81.2672C56.1985 81.2281 56.1594 81.1889 56.1203 81.1107C50.9971 84.5132 45.913 87.9547 40.7116 91.4353C41.8066 92.2957 42.7452 93.0388 43.6838 93.7818C44.818 94.6422 45.7566 94.5249 46.6561 93.469C47.4382 92.5304 48.1422 91.5918 48.8852 90.6532C51.349 87.4854 53.7738 84.3958 56.2376 81.2672Z" fill="#77B900"/>
<path d="M68.5568 56.5507C68.5177 64.9981 63.1208 72.3505 55.1036 74.8143C54.556 74.9707 53.813 74.9707 53.3828 74.697C53.0308 74.5014 52.7571 73.7193 52.8744 73.2891C52.9917 72.8198 53.5392 72.3114 54.0085 72.1549C56.1204 71.451 58.1149 70.4733 59.7966 68.9872C65.0371 64.3724 66.8752 58.5452 64.9198 51.8968C62.9643 45.2875 58.2713 41.3767 51.4274 40.399C42.9018 39.1866 34.9237 44.9747 33.3593 53.3047C31.7168 61.9477 36.8791 70.1213 45.3265 72.2723C45.5611 72.3114 45.7567 72.3896 45.9913 72.4287C47.0472 72.7025 47.4774 73.2891 47.2819 74.2277C47.0864 75.1272 46.3824 75.5574 45.3265 75.2445C43.9186 74.8534 42.5107 74.4623 41.181 73.8366C33.5549 70.356 28.9792 61.8303 30.3089 53.6567C31.7168 44.9746 38.4434 38.4045 46.9299 37.4267C58.5451 36.0971 68.635 44.9747 68.5568 56.5507Z" fill="#77B900"/>
<path d="M45.8736 48.9637C47.0078 50.6454 47.9464 52.0924 48.9632 53.5394C49.1196 53.7349 49.5107 53.8523 49.7845 53.8523C50.2929 53.8523 50.8013 53.6958 51.3097 53.6567C53.7735 53.4612 55.8463 54.1651 57.0977 56.4334C58.3883 58.819 58.3101 61.2437 56.7849 63.5511C56.5893 63.8249 56.3938 64.0595 56.1982 64.3333C57.3324 66.2887 57.4106 66.8754 56.5111 67.5011C55.6507 68.0877 55.1814 67.8531 53.8908 66.3278C52.4438 66.6407 51.1141 66.9927 49.7454 67.1491C48.6503 67.3055 48.0246 66.7189 47.9855 65.8194C47.9073 64.8808 48.4939 64.3724 49.628 64.2551C50.4493 64.1769 51.2315 63.9422 52.2092 63.7858C50.7622 61.6348 49.4325 59.6403 48.1028 57.6849C47.9464 57.4893 47.5162 57.372 47.2033 57.372C46.4211 57.3329 45.639 57.4894 44.8568 57.4111C40.7895 56.9027 38.9515 52.4444 41.3371 48.9246C41.689 48.4162 41.7281 48.0642 41.3371 47.5558C40.6331 46.5781 40.7504 45.796 41.4935 45.2484C42.3148 44.6618 43.0187 44.8965 43.7618 45.9133C43.8791 46.1088 44.0355 46.2653 44.0746 46.3435C45.2088 46.187 46.2647 45.9524 47.3206 45.9133C48.4157 45.8742 49.0414 46.4608 49.0023 47.3603C49.0023 48.2989 48.3766 48.8073 47.3206 48.8073C46.9687 48.8464 46.5385 48.9246 45.8736 48.9637ZM50.9968 56.5899C52.1701 58.3497 53.3042 59.9923 54.4384 61.6739C55.2596 60.3834 55.2596 58.819 54.4384 57.6849C53.6171 56.5507 52.522 56.1988 50.9968 56.5899ZM43.6053 50.8409C42.745 52.9919 43.9182 54.6736 45.991 54.3998C45.2088 53.2265 44.4657 52.0924 43.6053 50.8409Z" fill="#77B900"/>
<path d="M28.7056 71.4901C28.3145 71.9985 28.0407 72.4678 27.6888 72.7416C25.4987 74.2668 23.2695 75.7138 21.0403 77.1999C20.2191 77.7475 19.3978 77.591 18.8894 76.848C18.4592 76.1831 18.5765 75.3227 19.3587 74.8143C21.627 73.2891 23.8561 71.7248 26.1635 70.2778C26.5546 70.0431 27.2586 70.0431 27.6888 70.2387C28.119 70.4342 28.3536 70.9817 28.7056 71.4901Z" fill="#77B900"/>
<path d="M71.4896 43.1756C71.0985 42.8628 70.551 42.5499 70.3164 42.1197C69.9644 41.4549 70.2381 40.79 70.8639 40.3598C72.0762 39.5385 73.2886 38.7173 74.5009 37.9351C75.5178 37.2312 76.5346 36.5663 77.5905 35.9015C78.4118 35.354 79.2722 35.5104 79.7415 36.2534C80.2108 36.9574 80.0543 37.7787 79.1939 38.3653C77.0039 39.8514 74.7747 41.3375 72.5455 42.8236C72.3109 42.9019 71.998 42.9801 71.4896 43.1756Z" fill="#77B900"/>
</g>
<defs>
<clipPath id="clip0_153_6552">
<rect width="99.9218" height="100" fill="white"/>
</clipPath>
</defs>
</svg>
