<svg width="94" height="100" viewBox="0 0 94 100" fill="none" xmlns="http://www.w3.org/2000/svg">
<g clip-path="url(#clip0_153_6529)">
<path d="M93.4316 100C62.1816 100 31.1867 100 0.000472166 100C-0.190854 95.0256 0.383125 90.1787 1.84996 85.5231C7.07955 69.1327 22.1306 57.9083 39.4137 57.7169C45.6637 57.6532 51.9775 57.5256 58.1637 58.0358C75.3831 59.5026 90.3704 73.9797 92.8576 91.1353C93.1765 93.3674 93.2403 95.6634 93.4316 97.9593C93.4954 98.597 93.4316 99.2348 93.4316 100ZM5.29384 94.8981C33.0362 94.8981 60.5234 94.8981 88.202 94.8981C88.0745 93.8139 87.9469 92.7935 87.8194 91.8368C85.5872 76.9771 72.7046 64.4771 57.6535 63.1378C51.6586 62.6276 45.5362 62.6276 39.5413 62.819C24.8091 63.3292 14.2862 70.472 7.97241 83.7373C6.37802 87.245 5.48517 90.944 5.29384 94.8981Z" fill="#77B900"/>
<path d="M46.8753 5.34566e-05C61.5437 0.127604 73.2784 12.0536 73.087 26.5944C72.8957 41.199 60.9697 52.7424 46.3013 52.6148C32.0794 52.4235 20.3447 40.4975 20.4085 26.3393C20.4722 11.6072 32.3345 -0.127498 46.8753 5.34566e-05ZM46.8753 5.10209C35.2044 4.97454 25.6381 14.4133 25.5105 26.0205C25.383 37.6276 34.758 47.3215 46.2375 47.5128C58.1636 47.7041 67.8574 38.2654 67.9212 26.4031C68.0488 14.7322 58.61 5.22965 46.8753 5.10209Z" fill="#77B900"/>
</g>
<defs>
<clipPath id="clip0_153_6529">
<rect width="93.4949" height="100" fill="white"/>
</clipPath>
</defs>
</svg>
